<svg xmlns="http://www.w3.org/2000/svg" xml:space="preserve" id="Capa_1" x="0" y="0" viewBox="0 0 541.2 130.6"><style>.st0{fill:#fff}</style><circle cx="65.3" cy="65.3" r="63.4" class="st0"/><path d="M338.3 49.1c-2.6-2.1-6.6-3.2-11.9-3.2h-13.9c-7.2 0-12.3.9-15.4 2.8-3.1 1.8-4.6 4.8-4.6 9v.5h14.3c0-1 .3-1.8 1-2.3s1.7-.7 3.1-.7h11.6c1.8 0 3.1.4 4.1 1.1.9.7 1.4 1.8 1.4 3.2v4.2c-1.7-1.2-3.9-2-6.7-2.6-2.8-.5-6.4-.8-10.8-.8-7.7 0-13 .9-15.8 2.8q-4.2 2.85-4.2 10.2c0 5 1.3 8.4 4 10.3s7.7 2.9 14.9 2.9c4.9 0 8.8-.4 11.8-1.3 3-.8 5.2-2.2 6.7-4V86h14.2V59c.1-4.5-1.2-7.8-3.8-9.9m-12.1 26.6c-1.1.6-2.9.9-5.5.9H312c-2.8 0-4.6-.3-5.6-.8s-1.4-1.5-1.4-2.9c0-1.5.5-2.5 1.6-3.1 1-.6 2.9-.9 5.5-.9h8.7c2.8 0 4.7.3 5.6.8 1 .6 1.4 1.5 1.4 3 0 1.4-.5 2.4-1.6 3M192.2 49.1c-2.6-2.1-6.6-3.2-11.9-3.2h-13.9c-7.2 0-12.3.9-15.4 2.8-3.1 1.8-4.6 4.8-4.6 9v.5h14.3c0-1 .3-1.8 1-2.3s1.7-.7 3.1-.7h11.6c1.8 0 3.1.4 4.1 1.1.9.7 1.4 1.8 1.4 3.2v4.2c-1.7-1.2-3.9-2-6.7-2.6-2.8-.5-6.4-.8-10.8-.8-7.7 0-13 .9-15.8 2.8q-4.2 2.85-4.2 10.2c0 5 1.3 8.4 4 10.3s7.7 2.9 14.9 2.9c4.9 0 8.8-.4 11.8-1.3 3-.8 5.2-2.2 6.7-4V86H196V59c.1-4.5-1.2-7.8-3.8-9.9m-12 26.6c-1.1.6-2.9.9-5.5.9H166c-2.8 0-4.6-.3-5.6-.8s-1.4-1.5-1.4-2.9c0-1.5.5-2.5 1.6-3.1 1-.6 2.9-.9 5.5-.9h8.7c2.8 0 4.7.3 5.6.8 1 .6 1.4 1.5 1.4 3 0 1.4-.6 2.4-1.6 3M242.2 65.7c0 3.5-.9 5.9-2.6 7.2-1.7 1.4-4.9 2-9.5 2-4.1 0-6.9-.5-8.5-1.7-1.5-1.1-2.3-3.4-2.3-6.8v-20h-14.2v25.3c0 5.1 1.6 8.8 4.7 11.2s8 3.6 14.6 3.6c5.2 0 9.1-.5 11.6-1.5s4.6-2.7 6.2-5.1V86h14.2V46.4h-14.2zM267.9 30.1h14.2v55.8h-14.2zM394 67.8h-12.6v.2c.1.9.1 1.6.1 2.1 0 2.1-.5 3.6-1.4 4.4-.9.9-2.5 1.3-4.8 1.3-2 0-3.4-.4-4.3-1.3-.8-.8-1.3-2.3-1.3-4.4V56.7h22.2V46.4h-22.2V37h-14.2v9.4h-8v10.3h8v16c0 5 1.4 8.5 4.1 10.6 2.8 2 7.5 3.1 14.3 3.1q10.65 0 15.3-3.6c3.1-2.4 4.7-6.3 4.7-11.6v-2.1c.1-.4.1-.9.1-1.3M474.5 49.6q-4.8-3.6-14.4-3.6c-5.1 0-9 .5-11.5 1.5s-4.6 2.7-6.2 5.2v-6.1h-14.2v39.3h14.2v-19c0-3.4.9-5.8 2.6-7.2 1.8-1.4 4.7-2.2 8.8-2.2 4.5 0 7.5.6 9 1.6q2.4 1.65 2.4 6.9v19.9h14.2V60.4c-.1-4.8-1.7-8.4-4.9-10.8M534.8 49.1c-2.6-2.1-6.6-3.2-11.9-3.2H509c-7.2 0-12.3.9-15.4 2.8-3.1 1.8-4.6 4.8-4.6 9v.5h14.3c0-1 .3-1.8 1-2.3s1.7-.7 3.1-.7H519c1.8 0 3.1.4 4.1 1.1.9.7 1.4 1.8 1.4 3.2v4.2c-1.7-1.2-3.9-2-6.7-2.6-2.8-.5-6.4-.8-10.8-.8-7.7 0-13 .9-15.8 2.8q-4.2 2.85-4.2 10.2c0 5 1.3 8.4 4 10.3s7.7 2.9 14.9 2.9c4.9 0 8.8-.4 11.8-1.3 3-.8 5.2-2.2 6.7-4V86h14.2V59c.1-4.5-1.2-7.8-3.8-9.9m-12.1 26.6c-1.1.6-2.9.9-5.5.9h-8.7c-2.8 0-4.6-.3-5.6-.8s-1.4-1.5-1.4-2.9c0-1.5.5-2.5 1.6-3.1 1-.6 2.9-.9 5.5-.9h8.7c2.8 0 4.7.3 5.6.8 1 .6 1.4 1.5 1.4 3 0 1.4-.5 2.4-1.6 3M402.5 46.4h14.2v39.5h-14.2zM402.5 30.1h14.2v11.6h-14.2zM436.3 101.2h6.8v6.8h-6.8zM471.9 100.8h-6.1c0 1.1-.2 1.8-.7 2.2q-.75.6-3 .6h-2.7c-1.3 0-2.3-.2-2.8-.7-.6-.5-.9-1.2-.9-2.3v-2.2c0-1.2.3-2 .8-2.4s1.5-.7 2.9-.7h3c1.2 0 2.1.2 2.6.6s.8 1 .8 1.9v.1h5.8c0-.2.1-.5.1-.7v-.7c0-2-.7-3.5-2-4.4s-3.4-1.4-6.2-1.4h-5.8q-4.5 0-6.3 1.5c-1.2 1-1.8 2.7-1.8 5.2v4.6c0 2.2.6 3.8 1.9 4.8s3.3 1.5 6.2 1.5h5.9c3 0 5.2-.5 6.5-1.4 1.3-1 1.9-2.6 1.9-4.9v-.6c-.1-.3-.1-.4-.1-.6M536.4 92.3c-1.4-1-3.5-1.5-6.4-1.5q-2.85 0-4.5.9c-1.1.6-2 1.6-2.5 3-.4-1.3-1.2-2.3-2.4-2.9q-1.8-.9-5.1-.9c-1.8 0-3.3.2-4.3.7-1 .4-1.8 1.2-2.4 2.2V91h-6.1v17h6.1v-8.4c0-1.4.3-2.4 1-3s1.8-.9 3.4-.9c1.7 0 2.9.2 3.5.7q.9.75.9 3v8.6h6.1v-8.4c0-1.4.3-2.4 1-3q1.05-.9 3.3-.9c1.7 0 2.8.2 3.4.7q.9.75.9 3v8.6h6.1V97c.1-2.1-.6-3.7-2-4.7M496.6 92.2c-1.3-1-3.5-1.5-6.5-1.5h-6.2q-4.65 0-6.6 1.5c-1.3 1-1.9 2.7-1.9 5.1v4.6c0 2.2.7 3.8 2 4.8q1.95 1.5 6.6 1.5h6.1q4.65 0 6.6-1.5c1.3-1 1.9-2.6 1.9-4.9v-4.7c0-2.3-.7-3.9-2-4.9m-4.2 8.4c0 1.1-.3 1.9-.9 2.3-.6.5-1.6.7-3.1.7h-2.9c-1.5 0-2.5-.2-3.1-.7s-.9-1.2-.9-2.3v-2.2q0-1.8.9-2.4c.6-.5 1.6-.7 3.2-.7h2.9c1.4 0 2.5.2 3.1.7s.9 1.2.9 2.3v2.3z" class="st0"/><path d="M125 44c-.1.1-.1.2-.2.3-3.3 6.2-2.2 7.4-17.1 16.7-7.1 4.4-29.5 10.6-39.2 16.8-6.7 4.3-28.9 19-31.4 21.1-6.2 5.4-11.4 7.9-10.9 5.4.1-.6 2.3-8.2 5-13.8 3.1-6.4 8.4-14.3 13.9-21.1l-9-13.3c1.6 2.4 2.3 5.1 2.6 6.1.1.3 1 9.6-13.4 17.9-9.2 5.3-9.8 9.7-11.7 13.9-.3.7-1.4 3.2-1.5 3.9 0 .6-.2 1.1-.4 1.4 11.2 17.7 31 29.4 53.5 29.4 35 0 63.4-28.4 63.4-63.4.1-7.5-1.2-14.6-3.6-21.3" style="fill:#640303"/><path d="M15.6 59.2c.1-.2.3-.4.4-.6 1.3-1.6 7.7-8.9 14.1-7.3 2.8.7 4.7 2.6 6.1 4.6l9.1 13.5c3.2-4 6.5-7.6 9.5-10.4 9-8.4 12.8-14.9 33.8-24.9 15.3-7.3 24.3-6.7 28.3-5.7C105.4 12.4 86.6 2 65.5 2 30.5 2 2.1 30.4 2.1 65.4c0 7.9 1.4 15.4 4.1 22.4-.2-2.7.1-5.9 1.2-9.9 2.3-8.7 7.2-17 8.2-18.7" style="fill:#de0400"/><path d="M528.9 37.9V30h3.5c.7 0 1.2.1 1.6.2s.7.4.9.7q.3.6.3 1.2c0 .6-.2 1-.5 1.4-.4.4-.9.6-1.7.7.3.1.5.3.6.4.3.3.6.6.9 1l1.4 2.1h-1.3l-1-1.6c-.3-.5-.6-.8-.8-1.1s-.4-.4-.5-.5-.3-.2-.5-.2H530v3.5h-1.1zm1-4.4h2.2c.5 0 .8 0 1.1-.1s.5-.3.6-.5.2-.5.2-.7c0-.4-.1-.7-.4-.9s-.7-.4-1.3-.4h-2.5v2.6z" class="st0"/><path d="M531.8 40.8c-3.8 0-6.8-3.1-6.8-6.8s3.1-6.8 6.8-6.8c3.8 0 6.8 3.1 6.8 6.8s-3 6.8-6.8 6.8m0-12.8c-3.3 0-5.9 2.7-5.9 5.9s2.7 5.9 5.9 5.9c3.3 0 5.9-2.7 5.9-5.9s-2.6-5.9-5.9-5.9" class="st0"/></svg>