<?xml version="1.0" encoding="UTF-8"?>
<!-- Generator: Adobe Illustrator 21.1.0, SVG Export Plug-In . SVG Version: 6.00 Build 0)  -->
<svg xmlns="http://www.w3.org/2000/svg" xmlns:xlink="http://www.w3.org/1999/xlink" version="1.1" id="Capa_1" x="0px" y="0px" viewBox="0 0 541.2 130.6" style="enable-background:new 0 0 541.2 130.6;" xml:space="preserve">
<style type="text/css">
	.st0{fill:#FFFFFF;}
	.st1{fill:#640303;}
	.st2{fill:#DE0400;}
</style>
<circle class="st0" cx="65.3" cy="65.3" r="63.4"></circle>
<g>
	<g>
		<path class="st0" d="M338.3,49.1c-2.6-2.1-6.6-3.2-11.9-3.2h-13.9c-7.2,0-12.3,0.9-15.4,2.8c-3.1,1.8-4.6,4.8-4.6,9v0.5h14.3    c0-1,0.3-1.8,1-2.3c0.7-0.5,1.7-0.7,3.1-0.7h11.6c1.8,0,3.1,0.4,4.1,1.1c0.9,0.7,1.4,1.8,1.4,3.2v4.2c-1.7-1.2-3.9-2-6.7-2.6    c-2.8-0.5-6.4-0.8-10.8-0.8c-7.7,0-13,0.9-15.8,2.8c-2.8,1.9-4.2,5.3-4.2,10.2c0,5,1.3,8.4,4,10.3c2.7,1.9,7.7,2.9,14.9,2.9    c4.9,0,8.8-0.4,11.8-1.3c3-0.8,5.2-2.2,6.7-4v4.8h14.2v-27C342.2,54.5,340.9,51.2,338.3,49.1z M326.2,75.7    c-1.1,0.6-2.9,0.9-5.5,0.9h-8.7c-2.8,0-4.6-0.3-5.6-0.8c-1-0.5-1.4-1.5-1.4-2.9c0-1.5,0.5-2.5,1.6-3.1c1-0.6,2.9-0.9,5.5-0.9h8.7    c2.8,0,4.7,0.3,5.6,0.8c1,0.6,1.4,1.5,1.4,3C327.8,74.1,327.3,75.1,326.2,75.7z"></path>
		<path class="st0" d="M192.2,49.1c-2.6-2.1-6.6-3.2-11.9-3.2h-13.9c-7.2,0-12.3,0.9-15.4,2.8c-3.1,1.8-4.6,4.8-4.6,9v0.5h14.3    c0-1,0.3-1.8,1-2.3c0.7-0.5,1.7-0.7,3.1-0.7h11.6c1.8,0,3.1,0.4,4.1,1.1c0.9,0.7,1.4,1.8,1.4,3.2v4.2c-1.7-1.2-3.9-2-6.7-2.6    c-2.8-0.5-6.4-0.8-10.8-0.8c-7.7,0-13,0.9-15.8,2.8c-2.8,1.9-4.2,5.3-4.2,10.2c0,5,1.3,8.4,4,10.3c2.7,1.9,7.7,2.9,14.9,2.9    c4.9,0,8.8-0.4,11.8-1.3c3-0.8,5.2-2.2,6.7-4v4.8h14.2v-27C196.1,54.5,194.8,51.2,192.2,49.1z M180.2,75.7    c-1.1,0.6-2.9,0.9-5.5,0.9H166c-2.8,0-4.6-0.3-5.6-0.8c-1-0.5-1.4-1.5-1.4-2.9c0-1.5,0.5-2.5,1.6-3.1c1-0.6,2.9-0.9,5.5-0.9h8.7    c2.8,0,4.7,0.3,5.6,0.8c1,0.6,1.4,1.5,1.4,3C181.8,74.1,181.2,75.1,180.2,75.7z"></path>
		<path class="st0" d="M242.2,65.7c0,3.5-0.9,5.9-2.6,7.2c-1.7,1.4-4.9,2-9.5,2c-4.1,0-6.9-0.5-8.5-1.7c-1.5-1.1-2.3-3.4-2.3-6.8    V46.4h-14.2v25.3c0,5.1,1.6,8.8,4.7,11.2c3.1,2.4,8,3.6,14.6,3.6c5.2,0,9.1-0.5,11.6-1.5c2.5-1,4.6-2.7,6.2-5.1v6.1h14.2V46.4    h-14.2V65.7z"></path>
		<rect x="267.9" y="30.1" class="st0" width="14.2" height="55.8"></rect>
		<path class="st0" d="M394,67.8h-12.6c0,0.1,0,0.1,0,0.2c0.1,0.9,0.1,1.6,0.1,2.1c0,2.1-0.5,3.6-1.4,4.4c-0.9,0.9-2.5,1.3-4.8,1.3    c-2,0-3.4-0.4-4.3-1.3c-0.8-0.8-1.3-2.3-1.3-4.4V56.7h22.2V46.4h-22.2V37h-14.2v9.4h-8v10.3h8v16c0,5,1.4,8.5,4.1,10.6    c2.8,2,7.5,3.1,14.3,3.1c7.1,0,12.2-1.2,15.3-3.6c3.1-2.4,4.7-6.3,4.7-11.6c0-0.9,0-1.6,0-2.1C394,68.7,394,68.2,394,67.8z"></path>
		<path class="st0" d="M474.5,49.6c-3.2-2.4-8-3.6-14.4-3.6c-5.1,0-9,0.5-11.5,1.5c-2.5,1-4.6,2.7-6.2,5.2v-6.1h-14.2v39.3h14.2v-19    c0-3.4,0.9-5.8,2.6-7.2c1.8-1.4,4.7-2.2,8.8-2.2c4.5,0,7.5,0.6,9,1.6c1.6,1.1,2.4,3.4,2.4,6.9v19.9h14.2V60.4    C479.3,55.6,477.7,52,474.5,49.6z"></path>
		<path class="st0" d="M534.8,49.1c-2.6-2.1-6.6-3.2-11.9-3.2h-13.9c-7.2,0-12.3,0.9-15.4,2.8c-3.1,1.8-4.6,4.8-4.6,9v0.5h14.3    c0-1,0.3-1.8,1-2.3c0.7-0.5,1.7-0.7,3.1-0.7h11.6c1.8,0,3.1,0.4,4.1,1.1c0.9,0.7,1.4,1.8,1.4,3.2v4.2c-1.7-1.2-3.9-2-6.7-2.6    c-2.8-0.5-6.4-0.8-10.8-0.8c-7.7,0-13,0.9-15.8,2.8c-2.8,1.9-4.2,5.3-4.2,10.2c0,5,1.3,8.4,4,10.3c2.7,1.9,7.7,2.9,14.9,2.9    c4.9,0,8.8-0.4,11.8-1.3c3-0.8,5.2-2.2,6.7-4v4.8h14.2v-27C538.7,54.5,537.4,51.2,534.8,49.1z M522.7,75.7    c-1.1,0.6-2.9,0.9-5.5,0.9h-8.7c-2.8,0-4.6-0.3-5.6-0.8c-1-0.5-1.4-1.5-1.4-2.9c0-1.5,0.5-2.5,1.6-3.1c1-0.6,2.9-0.9,5.5-0.9h8.7    c2.8,0,4.7,0.3,5.6,0.8c1,0.6,1.4,1.5,1.4,3C524.3,74.1,523.8,75.1,522.7,75.7z"></path>
		<rect x="402.5" y="46.4" class="st0" width="14.2" height="39.5"></rect>
		<rect x="402.5" y="30.1" class="st0" width="14.2" height="11.6"></rect>
	</g>
	<g>
		<rect x="436.3" y="101.2" class="st0" width="6.8" height="6.8"></rect>
		<path class="st0" d="M471.9,100.8h-6.1c0,1.1-0.2,1.8-0.7,2.2c-0.5,0.4-1.5,0.6-3,0.6h-2.7c-1.3,0-2.3-0.2-2.8-0.7    c-0.6-0.5-0.9-1.2-0.9-2.3v-2.2c0-1.2,0.3-2,0.8-2.4c0.5-0.4,1.5-0.7,2.9-0.7h3c1.2,0,2.1,0.2,2.6,0.6c0.5,0.4,0.8,1,0.8,1.9v0.1    h5.8c0-0.2,0.1-0.5,0.1-0.7c0-0.2,0-0.5,0-0.7c0-2-0.7-3.5-2-4.4c-1.3-0.9-3.4-1.4-6.2-1.4h-5.8c-3,0-5.1,0.5-6.3,1.5    c-1.2,1-1.8,2.7-1.8,5.2v4.6c0,2.2,0.6,3.8,1.9,4.8c1.3,1,3.3,1.5,6.2,1.5h5.9c3,0,5.2-0.5,6.5-1.4c1.3-1,1.9-2.6,1.9-4.9    c0-0.3,0-0.5,0-0.6C471.9,101.1,471.9,101,471.9,100.8z"></path>
		<path class="st0" d="M536.4,92.3c-1.4-1-3.5-1.5-6.4-1.5c-1.9,0-3.4,0.3-4.5,0.9c-1.1,0.6-2,1.6-2.5,3c-0.4-1.3-1.2-2.3-2.4-2.9    c-1.2-0.6-2.9-0.9-5.1-0.9c-1.8,0-3.3,0.2-4.3,0.7c-1,0.4-1.8,1.2-2.4,2.2V91h-6.1v17h6.1v-8.4c0-1.4,0.3-2.4,1-3    c0.7-0.6,1.8-0.9,3.4-0.9c1.7,0,2.9,0.2,3.5,0.7c0.6,0.5,0.9,1.5,0.9,3v8.6h6.1v-8.4c0-1.4,0.3-2.4,1-3c0.7-0.6,1.8-0.9,3.3-0.9    c1.7,0,2.8,0.2,3.4,0.7c0.6,0.5,0.9,1.5,0.9,3v8.6h6.1V97C538.5,94.9,537.8,93.3,536.4,92.3z"></path>
		<path class="st0" d="M496.6,92.2c-1.3-1-3.5-1.5-6.5-1.5h-6.2c-3.1,0-5.3,0.5-6.6,1.5c-1.3,1-1.9,2.7-1.9,5.1v4.6    c0,2.2,0.7,3.8,2,4.8c1.3,1,3.5,1.5,6.6,1.5h6.1c3.1,0,5.3-0.5,6.6-1.5c1.3-1,1.9-2.6,1.9-4.9v-4.7    C498.6,94.8,497.9,93.2,496.6,92.2z M492.4,100.6c0,1.1-0.3,1.9-0.9,2.3c-0.6,0.5-1.6,0.7-3.1,0.7h-2.9c-1.5,0-2.5-0.2-3.1-0.7    c-0.6-0.5-0.9-1.2-0.9-2.3v-2.2c0-1.2,0.3-2,0.9-2.4c0.6-0.5,1.6-0.7,3.2-0.7h2.9c1.4,0,2.5,0.2,3.1,0.7c0.6,0.5,0.9,1.2,0.9,2.3    V100.6z"></path>
	</g>
</g>
<g>
	<path class="st1" d="M125,44c-0.1,0.1-0.1,0.2-0.2,0.3c-3.3,6.2-2.2,7.4-17.1,16.7c-7.1,4.4-29.5,10.6-39.2,16.8   c-6.7,4.3-28.9,19-31.4,21.1c-6.2,5.4-11.4,7.9-10.9,5.4c0.1-0.6,2.3-8.2,5-13.8c3.1-6.4,8.4-14.3,13.9-21.1l-9-13.3l0,0   c1.6,2.4,2.3,5.1,2.6,6.1c0.1,0.3,1,9.6-13.4,17.9c-9.2,5.3-9.8,9.7-11.7,13.9c-0.3,0.7-1.4,3.2-1.5,3.9c0,0.6-0.2,1.1-0.4,1.4   c11.2,17.7,31,29.4,53.5,29.4c35,0,63.4-28.4,63.4-63.4C128.7,57.8,127.4,50.7,125,44z"></path>
	<path class="st2" d="M15.6,59.2c0.1-0.2,0.3-0.4,0.4-0.6c1.3-1.6,7.7-8.9,14.1-7.3c2.8,0.7,4.7,2.6,6.1,4.6l0,0l9.1,13.5   c3.2-4,6.5-7.6,9.5-10.4c9-8.4,12.8-14.9,33.8-24.9c15.3-7.3,24.3-6.7,28.3-5.7c-11.5-16-30.3-26.4-51.4-26.4   c-35,0-63.4,28.4-63.4,63.4c0,7.9,1.4,15.4,4.1,22.4c-0.2-2.7,0.1-5.9,1.2-9.9C9.7,69.2,14.6,60.9,15.6,59.2z"></path>
</g>
<g>
	<g>
		<path class="st0" d="M528.9,37.9V30h3.5c0.7,0,1.2,0.1,1.6,0.2s0.7,0.4,0.9,0.7c0.2,0.4,0.3,0.8,0.3,1.2c0,0.6-0.2,1-0.5,1.4    c-0.4,0.4-0.9,0.6-1.7,0.7c0.3,0.1,0.5,0.3,0.6,0.4c0.3,0.3,0.6,0.6,0.9,1l1.4,2.1h-1.3l-1-1.6c-0.3-0.5-0.6-0.8-0.8-1.1    c-0.2-0.3-0.4-0.4-0.5-0.5s-0.3-0.2-0.5-0.2c-0.1,0-0.3,0-0.6,0h-1.2v3.5H528.9z M529.9,33.5h2.2c0.5,0,0.8,0,1.1-0.1    c0.3-0.1,0.5-0.3,0.6-0.5c0.1-0.2,0.2-0.5,0.2-0.7c0-0.4-0.1-0.7-0.4-0.9c-0.3-0.2-0.7-0.4-1.3-0.4h-2.5V33.5z"></path>
	</g>
	<g>
		<path class="st0" d="M531.8,40.8c-3.8,0-6.8-3.1-6.8-6.8s3.1-6.8,6.8-6.8c3.8,0,6.8,3.1,6.8,6.8S535.6,40.8,531.8,40.8z M531.8,28    c-3.3,0-5.9,2.7-5.9,5.9s2.7,5.9,5.9,5.9c3.3,0,5.9-2.7,5.9-5.9S535.1,28,531.8,28z"></path>
	</g>
</g>
</svg>
