<svg xmlns="http://www.w3.org/2000/svg" width="437.759" height="125.727" viewBox="0 0 115.824 33.265"><defs><clipPath id="a" clipPathUnits="userSpaceOnUse"><path d="M-157.016 126.754H438.26v-841.89h-595.276Z"/></clipPath><clipPath id="b" clipPathUnits="userSpaceOnUse"><path d="M0 841.89h595.276V0H0Z"/></clipPath><clipPath id="c" clipPathUnits="userSpaceOnUse"><path d="M0 841.89h595.276V0H0Z"/></clipPath><clipPath id="d" clipPathUnits="userSpaceOnUse"><path d="M-154.538 127h595.276v-841.89h-595.276Z"/></clipPath><clipPath id="e" clipPathUnits="userSpaceOnUse"><path d="M-173.252 107.16h595.276v-841.89h-595.276Z"/></clipPath><clipPath id="f" clipPathUnits="userSpaceOnUse"><path d="M-164.865 131.376H430.41v-841.89h-595.276Z"/></clipPath><clipPath id="g" clipPathUnits="userSpaceOnUse"><path d="M-161.196 147.089H434.08v-841.89h-595.276Z"/></clipPath><clipPath id="h" clipPathUnits="userSpaceOnUse"><path d="M-213.773 81.404h595.276v-841.89h-595.276Z"/></clipPath><clipPath id="i" clipPathUnits="userSpaceOnUse"><path d="M-235.705 81.398H359.57v-841.89h-595.276Z"/></clipPath><clipPath id="j" clipPathUnits="userSpaceOnUse"><path d="M-263.016 87.989H332.26v-841.89h-595.276Z"/></clipPath><clipPath id="k" clipPathUnits="userSpaceOnUse"><path d="M-307.842 93.924h595.276v-841.89h-595.276Z"/></clipPath><clipPath id="l" clipPathUnits="userSpaceOnUse"><path d="M-341.593 94.823h595.276v-841.89h-595.276Z"/></clipPath><clipPath id="m" clipPathUnits="userSpaceOnUse"><path d="M-402.753 87.989h595.276v-841.89h-595.276Z"/></clipPath><clipPath id="n" clipPathUnits="userSpaceOnUse"><path d="M-450.4 81.398h595.276v-841.89H-450.4Z"/></clipPath><clipPath id="o" clipPathUnits="userSpaceOnUse"><path d="M-213.939 112.956h595.276v-841.89h-595.276Z"/></clipPath><clipPath id="p" clipPathUnits="userSpaceOnUse"><path d="M-232.212 112.207h595.276v-841.89h-595.276Z"/></clipPath><clipPath id="q" clipPathUnits="userSpaceOnUse"><path d="M-248.164 127.429h595.276v-841.89h-595.276Z"/></clipPath><clipPath id="r" clipPathUnits="userSpaceOnUse"><path d="M0 841.89h595.276V0H0Z"/></clipPath><clipPath id="s" clipPathUnits="userSpaceOnUse"><path d="M-301.543 112.956h595.276v-841.89h-595.276Z"/></clipPath><clipPath id="t" clipPathUnits="userSpaceOnUse"><path d="M0 841.89h595.276V0H0Z"/></clipPath><clipPath id="u" clipPathUnits="userSpaceOnUse"><path d="M-362.524 112.956h595.276v-841.89h-595.276Z"/></clipPath><clipPath id="v" clipPathUnits="userSpaceOnUse"><path d="M-376.098 112.956h595.276v-841.89h-595.276Z"/></clipPath><clipPath id="w" clipPathUnits="userSpaceOnUse"><path d="M-396.281 119.546h595.276v-841.89h-595.276Z"/></clipPath><clipPath id="x" clipPathUnits="userSpaceOnUse"><path d="M-430.507 126.38H164.77v-841.89h-595.276Z"/></clipPath><clipPath id="y" clipPathUnits="userSpaceOnUse"><path d="M-198.763 159.278h595.276v-841.89h-595.276Z"/></clipPath><clipPath id="z" clipPathUnits="userSpaceOnUse"><path d="M-236.333 158.38h595.276v-841.89h-595.276Z"/></clipPath><clipPath id="A" clipPathUnits="userSpaceOnUse"><path d="M-271.69 145.854h595.276v-841.89H-271.69Z"/></clipPath><clipPath id="B" clipPathUnits="userSpaceOnUse"><path d="M-318.233 162.33h595.276v-841.89h-595.276Z"/></clipPath><clipPath id="C" clipPathUnits="userSpaceOnUse"><path d="M-333.913 152.444h595.276v-841.89h-595.276Z"/></clipPath><clipPath id="D" clipPathUnits="userSpaceOnUse"><path d="M0 841.89h595.276V0H0Z"/></clipPath><clipPath id="E" clipPathUnits="userSpaceOnUse"><path d="M-395.466 145.854H199.81v-841.89h-595.276Z"/></clipPath><clipPath id="F" clipPathUnits="userSpaceOnUse"><path d="M-430.059 159.278h595.276v-841.89h-595.276Z"/></clipPath><clipPath id="G" clipPathUnits="userSpaceOnUse"><path d="M-157.016 126.754H438.26v-841.89h-595.276Z"/></clipPath><clipPath id="H" clipPathUnits="userSpaceOnUse"><path d="M0 841.89h595.276V0H0Z"/></clipPath><clipPath id="I" clipPathUnits="userSpaceOnUse"><path d="M0 841.89h595.276V0H0Z"/></clipPath><clipPath id="J" clipPathUnits="userSpaceOnUse"><path d="M-154.538 127h595.276v-841.89h-595.276Z"/></clipPath><clipPath id="K" clipPathUnits="userSpaceOnUse"><path d="M-173.252 107.16h595.276v-841.89h-595.276Z"/></clipPath><clipPath id="L" clipPathUnits="userSpaceOnUse"><path d="M-164.865 131.376H430.41v-841.89h-595.276Z"/></clipPath><clipPath id="M" clipPathUnits="userSpaceOnUse"><path d="M-161.196 147.089H434.08v-841.89h-595.276Z"/></clipPath><clipPath id="N" clipPathUnits="userSpaceOnUse"><path d="M-213.773 81.404h595.276v-841.89h-595.276Z"/></clipPath><clipPath id="O" clipPathUnits="userSpaceOnUse"><path d="M-235.705 81.398H359.57v-841.89h-595.276Z"/></clipPath><clipPath id="P" clipPathUnits="userSpaceOnUse"><path d="M-263.016 87.989H332.26v-841.89h-595.276Z"/></clipPath><clipPath id="Q" clipPathUnits="userSpaceOnUse"><path d="M-307.842 93.924h595.276v-841.89h-595.276Z"/></clipPath><clipPath id="R" clipPathUnits="userSpaceOnUse"><path d="M-341.593 94.823h595.276v-841.89h-595.276Z"/></clipPath><clipPath id="S" clipPathUnits="userSpaceOnUse"><path d="M-402.753 87.989h595.276v-841.89h-595.276Z"/></clipPath><clipPath id="T" clipPathUnits="userSpaceOnUse"><path d="M-450.4 81.398h595.276v-841.89H-450.4Z"/></clipPath><clipPath id="U" clipPathUnits="userSpaceOnUse"><path d="M-213.939 112.956h595.276v-841.89h-595.276Z"/></clipPath><clipPath id="V" clipPathUnits="userSpaceOnUse"><path d="M-232.212 112.207h595.276v-841.89h-595.276Z"/></clipPath><clipPath id="W" clipPathUnits="userSpaceOnUse"><path d="M-248.164 127.429h595.276v-841.89h-595.276Z"/></clipPath><clipPath id="X" clipPathUnits="userSpaceOnUse"><path d="M0 841.89h595.276V0H0Z"/></clipPath><clipPath id="Y" clipPathUnits="userSpaceOnUse"><path d="M-301.543 112.956h595.276v-841.89h-595.276Z"/></clipPath><clipPath id="Z" clipPathUnits="userSpaceOnUse"><path d="M0 841.89h595.276V0H0Z"/></clipPath><clipPath id="aa" clipPathUnits="userSpaceOnUse"><path d="M-362.524 112.956h595.276v-841.89h-595.276Z"/></clipPath><clipPath id="ab" clipPathUnits="userSpaceOnUse"><path d="M-376.098 112.956h595.276v-841.89h-595.276Z"/></clipPath><clipPath id="ac" clipPathUnits="userSpaceOnUse"><path d="M-396.281 119.546h595.276v-841.89h-595.276Z"/></clipPath><clipPath id="ad" clipPathUnits="userSpaceOnUse"><path d="M-430.507 126.38H164.77v-841.89h-595.276Z"/></clipPath><clipPath id="ae" clipPathUnits="userSpaceOnUse"><path d="M-198.763 159.278h595.276v-841.89h-595.276Z"/></clipPath><clipPath id="af" clipPathUnits="userSpaceOnUse"><path d="M-236.333 158.38h595.276v-841.89h-595.276Z"/></clipPath><clipPath id="ag" clipPathUnits="userSpaceOnUse"><path d="M-271.69 145.854h595.276v-841.89H-271.69Z"/></clipPath><clipPath id="ah" clipPathUnits="userSpaceOnUse"><path d="M-318.233 162.33h595.276v-841.89h-595.276Z"/></clipPath><clipPath id="ai" clipPathUnits="userSpaceOnUse"><path d="M-333.913 152.444h595.276v-841.89h-595.276Z"/></clipPath><clipPath id="aj" clipPathUnits="userSpaceOnUse"><path d="M0 841.89h595.276V0H0Z"/></clipPath><clipPath id="ak" clipPathUnits="userSpaceOnUse"><path d="M-395.466 145.854H199.81v-841.89h-595.276Z"/></clipPath><clipPath id="al" clipPathUnits="userSpaceOnUse"><path d="M-430.059 159.278h595.276v-841.89h-595.276Z"/></clipPath></defs><path d="M0 0c.085-19.445 29.652-19.447 29.739-.001C29.654 19.444.087 19.445 0 0m29.739-15.116H0v29.739h29.739z" clip-path="url(#a)" style="fill:#1f5da9;fill-opacity:1;fill-rule:nonzero;stroke:none" transform="matrix(.35278 0 0 -.35278 11.78 16.546)"/><path d="M154.538 732.298h-29.739v29.739h29.739z" clip-path="url(#b)" style="fill:#1f5da9;fill-opacity:1;fill-rule:nonzero;stroke:none" transform="matrix(.35278 0 0 -.35278 -43.612 268.83)"/><path d="M153.364 667.742h-29.739v29.739h29.739z" clip-path="url(#c)" style="fill:#1f5da9;fill-opacity:1;fill-rule:nonzero;stroke:none" transform="matrix(.35278 0 0 -.35278 -43.612 268.83)"/><path d="M0 0c0-8.212-6.657-14.87-14.87-14.87S-29.739-8.212-29.739 0s6.657 14.87 14.869 14.87S0 8.212 0 0" clip-path="url(#d)" style="fill:#1f5da9;fill-opacity:1;fill-rule:nonzero;stroke:none" transform="matrix(.35278 0 0 -.35278 10.905 16.633)"/><path d="M0 0c3.798 0 7.08.776 9.973 3.33L6.659 7.726C4.51 6.271 2.635 5.69 0 5.69c-3.912 0-5.803 2.909-5.803 6.546 0 3.636 1.891 6.546 5.803 6.546 2.635 0 4.51-.582 6.659-2.037l3.314 4.397C7.08 23.695 3.798 24.471 0 24.471c-7.661 0-12.704-4.445-12.704-12.235C-12.704 4.445-7.661 0 0 0m13.504-2.432h-29.739v29.739h29.739z" clip-path="url(#e)" style="fill:#1f5da9;fill-opacity:1;fill-rule:nonzero;stroke:none" transform="matrix(.35278 0 0 -.35278 17.507 9.633)"/><path d="M0 0c1.9-1.192 4.154-1.9 6.408-1.9 1.256 0 3.833-.048 3.833 1.771 0 1.498-2.705 1.852-3.768 2.077-4.042.854-8.937 2.609-8.937 7.552 0 5.442 4.573 7.31 9.356 7.31 3.397 0 6.714-.563 9.644-2.335l-3.075-4.589c-1.964.854-4.106 1.256-6.247 1.256-1.063 0-2.802-.225-2.802-1.642 0-1.514 2.286-1.787 3.381-2.029 4.315-.95 9.323-2.254 9.323-7.6 0-5.974-5.41-7.439-10.385-7.439-3.446 0-7.037.838-9.806 2.979z" clip-path="url(#f)" style="fill:#1f5da9;fill-opacity:1;fill-rule:nonzero;stroke:none" transform="matrix(.35278 0 0 -.35278 14.549 18.176)"/><path d="M0 0v-24.378h7.191v8.5h11.373v5.831H7.191v4.063H19.38V0Zm24.56-27.059H-5.179V2.68H24.56Z" clip-path="url(#g)" style="fill:#1f5da9;fill-opacity:1;fill-rule:nonzero;stroke:none" transform="matrix(.35278 0 0 -.35278 13.254 23.72)"/><path d="M0 0v-6.588h-13.419v-3.462H-.898v-6.42h-12.521v-3.78H.187v-6.588h-21.523V0Z" clip-path="url(#h)" style="fill:#1d1d1b;fill-opacity:1;fill-rule:nonzero;stroke:none" transform="matrix(.35278 0 0 -.35278 31.802 .547)"/><path d="m0 0 8.893-15.109V0h7.92v-26.849H7.545l-8.893 15.11v-15.11h-7.92V0Z" clip-path="url(#i)" style="fill:#1d1d1b;fill-opacity:1;fill-rule:nonzero;stroke:none" transform="matrix(.35278 0 0 -.35278 39.54 .545)"/><path d="M0 0v6.59h25.482V0h-8.781v-20.258h-7.92V0Z" clip-path="url(#j)" style="fill:#1d1d1b;fill-opacity:1;fill-rule:nonzero;stroke:none" transform="matrix(.35278 0 0 -.35278 49.174 2.87)"/><path d="M0 0h3.932C6.066 0 8.07.412 8.07 2.958c0 2.528-2.023 2.958-4.138 2.958H0Zm-7.92-14.323v26.849H3.932c6.403 0 12.132-2.228 12.132-9.568 0-3.426-2.078-6.197-5.223-7.414l5.467-9.867H7.789L3.183-6.029H0v-8.294z" clip-path="url(#k)" style="fill:#1d1d1b;fill-opacity:1;fill-rule:nonzero;stroke:none" transform="matrix(.35278 0 0 -.35278 64.988 4.964)"/><path d="M0 0c0-4.213 2.191-7.583 6.721-7.583S13.443-4.213 13.443 0s-2.191 7.583-6.722 7.583C2.191 7.583 0 4.213 0 0m6.721 14.173c8.875 0 14.717-5.149 14.717-14.173S15.596-14.173 6.721-14.173-7.995-9.024-7.995 0s5.842 14.173 14.716 14.173" clip-path="url(#l)" style="fill:#1d1d1b;fill-opacity:1;fill-rule:nonzero;stroke:none" transform="matrix(.35278 0 0 -.35278 76.894 5.281)"/><path d="M0 0v-13.668h3.763c4.513 0 6.104 2.603 6.104 6.834C9.867-2.602 8.276 0 3.763 0Zm-7.92-20.258V6.59H3.763c8.875 0 14.061-4.399 14.061-13.424S12.657-20.258 3.763-20.258z" clip-path="url(#m)" style="fill:#1d1d1b;fill-opacity:1;fill-rule:nonzero;stroke:none" transform="matrix(.35278 0 0 -.35278 98.47 2.87)"/><path d="M0 0v-6.59h-13.424v-3.464H-.899v-6.422h-12.525v-3.782H.187v-6.591h-21.531V0Z" clip-path="url(#n)" style="fill:#1d1d1b;fill-opacity:1;fill-rule:nonzero;stroke:none" transform="matrix(.35278 0 0 -.35278 115.279 .545)"/><path d="M0 0v-6.59h-13.424v-3.464H-.899v-6.422h-12.525v-3.782H.187v-6.591h-21.531V0Z" clip-path="url(#o)" style="fill:#1d1d1b;fill-opacity:1;fill-rule:nonzero;stroke:none" transform="matrix(.35278 0 0 -.35278 31.86 11.678)"/><path d="M0 0c4.437 0 8.219-.861 11.833-3.482L8.07-8.5C5.486-7.115 2.921-6.59 0-6.59c-4.531 0-6.722-3.371-6.722-7.583 0-4.213 2.191-7.583 6.722-7.583 1.46 0 2.977.168 4.306.805v3.801h-4.68v5.86h11.72v-13.892C7.826-27.729 4.25-28.346 0-28.346c-8.875 0-14.716 5.148-14.716 14.173C-14.716-5.149-8.875 0 0 0" clip-path="url(#p)" style="fill:#1d1d1b;fill-opacity:1;fill-rule:nonzero;stroke:none" transform="matrix(.35278 0 0 -.35278 38.307 11.414)"/><path d="M0 0v14.473h7.92V0c0-3.67.449-6.534 4.83-6.534S17.581-3.67 17.581 0v14.473h7.92V0c0-8.519-4.045-13.125-12.751-13.125S0-8.519 0 0" clip-path="url(#q)" style="fill:#1d1d1b;fill-opacity:1;fill-rule:nonzero;stroke:none" transform="matrix(.35278 0 0 -.35278 43.935 16.784)"/><path d="M278.346 728.934h7.92v-26.849h-7.92z" clip-path="url(#r)" style="fill:#1d1d1b;fill-opacity:1;fill-rule:nonzero;stroke:none" transform="matrix(.35278 0 0 -.35278 -43.612 268.83)"/><path d="m0 0 5.879-15.184L11.777 0h10.578v-26.849h-7.92v14.548L8.781-26.849H2.977l-5.654 14.548v-14.548h-7.92V0Z" clip-path="url(#s)" style="fill:#1d1d1b;fill-opacity:1;fill-rule:nonzero;stroke:none" transform="matrix(.35278 0 0 -.35278 62.766 11.678)"/><path d="M328.579 728.934h7.92v-26.849h-7.92z" clip-path="url(#t)" style="fill:#1d1d1b;fill-opacity:1;fill-rule:nonzero;stroke:none" transform="matrix(.35278 0 0 -.35278 -43.612 268.83)"/><path d="M0 0v-6.59h-13.424v-3.464H-.899v-6.422h-12.525v-3.782H.187v-6.591h-21.531V0Z" clip-path="url(#u)" style="fill:#1d1d1b;fill-opacity:1;fill-rule:nonzero;stroke:none" transform="matrix(.35278 0 0 -.35278 84.278 11.678)"/><path d="m0 0 8.893-15.109V0h7.92v-26.849H7.545l-8.893 15.11v-15.11h-7.92V0Z" clip-path="url(#v)" style="fill:#1d1d1b;fill-opacity:1;fill-rule:nonzero;stroke:none" transform="matrix(.35278 0 0 -.35278 89.067 11.678)"/><path d="M0 0v6.59h25.482V0h-8.781v-20.258h-7.92V0Z" clip-path="url(#w)" style="fill:#1d1d1b;fill-opacity:1;fill-rule:nonzero;stroke:none" transform="matrix(.35278 0 0 -.35278 96.187 14.003)"/><path d="M0 0c0-4.213 2.191-7.583 6.722-7.583 4.53 0 6.721 3.37 6.721 7.583s-2.191 7.583-6.721 7.583S0 4.213 0 0m6.722 14.173c8.874 0 14.716-5.149 14.716-14.173S15.596-14.173 6.722-14.173C-2.153-14.173-7.995-9.024-7.995 0s5.842 14.173 14.717 14.173" clip-path="url(#x)" style="fill:#1d1d1b;fill-opacity:1;fill-rule:nonzero;stroke:none" transform="matrix(.35278 0 0 -.35278 108.261 16.414)"/><path d="M0 0c0-4.213 2.191-7.583 6.722-7.583 4.53 0 6.721 3.37 6.721 7.583s-2.191 7.583-6.721 7.583S0 4.213 0 0m6.722 14.173c8.874 0 14.716-5.149 14.716-14.173S15.596-14.173 6.722-14.173C-2.153-14.173-7.995-9.024-7.995 0s5.842 14.173 14.717 14.173" clip-path="url(#y)" style="fill:#1d1d1b;fill-opacity:1;fill-rule:nonzero;stroke:none" transform="matrix(.35278 0 0 -.35278 26.507 28.02)"/><path d="M0 0h3.932C6.066 0 8.07.412 8.07 2.958c0 2.528-2.022 2.958-4.138 2.958H0Zm-7.92-14.323v26.849H3.932c6.403 0 12.132-2.228 12.132-9.568 0-3.426-2.078-6.197-5.223-7.414l5.467-9.867H7.789L3.183-6.029H0v-8.294z" clip-path="url(#z)" style="fill:#1d1d1b;fill-opacity:1;fill-rule:nonzero;stroke:none" transform="matrix(.35278 0 0 -.35278 39.76 27.702)"/><path d="m0 0 5.879-15.184L11.777 0h10.578v-26.849h-7.92v14.548L8.781-26.849H2.977l-5.654 14.548v-14.548h-7.92V0Z" clip-path="url(#A)" style="fill:#1d1d1b;fill-opacity:1;fill-rule:nonzero;stroke:none" transform="matrix(.35278 0 0 -.35278 52.234 23.284)"/><path d="m0 0-2.621 6.759L-5.242 0Zm-17.618-10.372 10.99 26.848h8.013l10.991-26.848H4.025L2.34-6.029h-9.923l-1.685-4.343z" clip-path="url(#B)" style="fill:#1d1d1b;fill-opacity:1;fill-rule:nonzero;stroke:none" transform="matrix(.35278 0 0 -.35278 68.653 29.096)"/><path d="M0 0v6.59h25.482V0h-8.781v-20.258h-7.92V0Z" clip-path="url(#C)" style="fill:#1d1d1b;fill-opacity:1;fill-rule:nonzero;stroke:none" transform="matrix(.35278 0 0 -.35278 74.185 25.609)"/><path d="M369.736 696.036h7.92v-26.849h-7.92z" clip-path="url(#D)" style="fill:#1d1d1b;fill-opacity:1;fill-rule:nonzero;stroke:none" transform="matrix(.35278 0 0 -.35278 -43.612 268.83)"/><path d="m0 0 6.272-17.131L12.544 0h8.351L10.279-26.849H2.265L-8.35 0Z" clip-path="url(#E)" style="fill:#1d1d1b;fill-opacity:1;fill-rule:nonzero;stroke:none" transform="matrix(.35278 0 0 -.35278 95.9 23.284)"/><path d="M0 0c0-4.213 2.191-7.583 6.722-7.583 4.53 0 6.721 3.37 6.721 7.583s-2.191 7.583-6.721 7.583S0 4.213 0 0m6.722 14.173c8.874 0 14.716-5.149 14.716-14.173S15.596-14.173 6.722-14.173C-2.153-14.173-7.995-9.024-7.995 0s5.842 14.173 14.717 14.173" clip-path="url(#F)" style="fill:#1d1d1b;fill-opacity:1;fill-rule:nonzero;stroke:none" transform="matrix(.35278 0 0 -.35278 108.103 28.02)"/><path d="M0 0c.085-19.445 29.652-19.447 29.739-.001C29.654 19.444.087 19.445 0 0m29.739-15.116H0v29.739h29.739z" clip-path="url(#G)" style="fill:#1f5da9;fill-opacity:1;fill-rule:nonzero;stroke:none" transform="matrix(.35278 0 0 -.35278 11.78 16.546)"/><path d="M154.538 732.298h-29.739v29.739h29.739z" clip-path="url(#H)" style="fill:#1f5da9;fill-opacity:1;fill-rule:nonzero;stroke:none" transform="matrix(.35278 0 0 -.35278 -43.612 268.83)"/><path d="M153.364 667.742h-29.739v29.739h29.739z" clip-path="url(#I)" style="fill:#1f5da9;fill-opacity:1;fill-rule:nonzero;stroke:none" transform="matrix(.35278 0 0 -.35278 -43.612 268.83)"/><path d="M0 0c0-8.212-6.657-14.87-14.87-14.87S-29.739-8.212-29.739 0s6.657 14.87 14.869 14.87S0 8.212 0 0" clip-path="url(#J)" style="fill:#1f5da9;fill-opacity:1;fill-rule:nonzero;stroke:none" transform="matrix(.35278 0 0 -.35278 10.905 16.633)"/><path d="M0 0c3.798 0 7.08.776 9.973 3.33L6.659 7.726C4.51 6.271 2.635 5.69 0 5.69c-3.912 0-5.803 2.909-5.803 6.546 0 3.636 1.891 6.546 5.803 6.546 2.635 0 4.51-.582 6.659-2.037l3.314 4.397C7.08 23.695 3.798 24.471 0 24.471c-7.661 0-12.704-4.445-12.704-12.235C-12.704 4.445-7.661 0 0 0m13.504-2.432h-29.739v29.739h29.739z" clip-path="url(#K)" style="fill:#1f5da9;fill-opacity:1;fill-rule:nonzero;stroke:none" transform="matrix(.35278 0 0 -.35278 17.507 9.633)"/><path d="M0 0c1.9-1.192 4.154-1.9 6.408-1.9 1.256 0 3.833-.048 3.833 1.771 0 1.498-2.705 1.852-3.768 2.077-4.042.854-8.937 2.609-8.937 7.552 0 5.442 4.573 7.31 9.356 7.31 3.397 0 6.714-.563 9.644-2.335l-3.075-4.589c-1.964.854-4.106 1.256-6.247 1.256-1.063 0-2.802-.225-2.802-1.642 0-1.514 2.286-1.787 3.381-2.029 4.315-.95 9.323-2.254 9.323-7.6 0-5.974-5.41-7.439-10.385-7.439-3.446 0-7.037.838-9.806 2.979z" clip-path="url(#L)" style="fill:#1f5da9;fill-opacity:1;fill-rule:nonzero;stroke:none" transform="matrix(.35278 0 0 -.35278 14.549 18.176)"/><path d="M0 0v-24.378h7.191v8.5h11.373v5.831H7.191v4.063H19.38V0Zm24.56-27.059H-5.179V2.68H24.56Z" clip-path="url(#M)" style="fill:#1f5da9;fill-opacity:1;fill-rule:nonzero;stroke:none" transform="matrix(.35278 0 0 -.35278 13.254 23.72)"/><path d="M0 0v-6.588h-13.419v-3.462H-.898v-6.42h-12.521v-3.78H.187v-6.588h-21.523V0Z" clip-path="url(#N)" style="fill:#1d1d1b;fill-opacity:1;fill-rule:nonzero;stroke:none" transform="matrix(.35278 0 0 -.35278 31.802 .547)"/><path d="m0 0 8.893-15.109V0h7.92v-26.849H7.545l-8.893 15.11v-15.11h-7.92V0Z" clip-path="url(#O)" style="fill:#1d1d1b;fill-opacity:1;fill-rule:nonzero;stroke:none" transform="matrix(.35278 0 0 -.35278 39.54 .545)"/><path d="M0 0v6.59h25.482V0h-8.781v-20.258h-7.92V0Z" clip-path="url(#P)" style="fill:#1d1d1b;fill-opacity:1;fill-rule:nonzero;stroke:none" transform="matrix(.35278 0 0 -.35278 49.174 2.87)"/><path d="M0 0h3.932C6.066 0 8.07.412 8.07 2.958c0 2.528-2.023 2.958-4.138 2.958H0Zm-7.92-14.323v26.849H3.932c6.403 0 12.132-2.228 12.132-9.568 0-3.426-2.078-6.197-5.223-7.414l5.467-9.867H7.789L3.183-6.029H0v-8.294z" clip-path="url(#Q)" style="fill:#1d1d1b;fill-opacity:1;fill-rule:nonzero;stroke:none" transform="matrix(.35278 0 0 -.35278 64.988 4.964)"/><path d="M0 0c0-4.213 2.191-7.583 6.721-7.583S13.443-4.213 13.443 0s-2.191 7.583-6.722 7.583C2.191 7.583 0 4.213 0 0m6.721 14.173c8.875 0 14.717-5.149 14.717-14.173S15.596-14.173 6.721-14.173-7.995-9.024-7.995 0s5.842 14.173 14.716 14.173" clip-path="url(#R)" style="fill:#1d1d1b;fill-opacity:1;fill-rule:nonzero;stroke:none" transform="matrix(.35278 0 0 -.35278 76.894 5.281)"/><path d="M0 0v-13.668h3.763c4.513 0 6.104 2.603 6.104 6.834C9.867-2.602 8.276 0 3.763 0Zm-7.92-20.258V6.59H3.763c8.875 0 14.061-4.399 14.061-13.424S12.657-20.258 3.763-20.258z" clip-path="url(#S)" style="fill:#1d1d1b;fill-opacity:1;fill-rule:nonzero;stroke:none" transform="matrix(.35278 0 0 -.35278 98.47 2.87)"/><path d="M0 0v-6.59h-13.424v-3.464H-.899v-6.422h-12.525v-3.782H.187v-6.591h-21.531V0Z" clip-path="url(#T)" style="fill:#1d1d1b;fill-opacity:1;fill-rule:nonzero;stroke:none" transform="matrix(.35278 0 0 -.35278 115.279 .545)"/><path d="M0 0v-6.59h-13.424v-3.464H-.899v-6.422h-12.525v-3.782H.187v-6.591h-21.531V0Z" clip-path="url(#U)" style="fill:#1d1d1b;fill-opacity:1;fill-rule:nonzero;stroke:none" transform="matrix(.35278 0 0 -.35278 31.86 11.678)"/><path d="M0 0c4.437 0 8.219-.861 11.833-3.482L8.07-8.5C5.486-7.115 2.921-6.59 0-6.59c-4.531 0-6.722-3.371-6.722-7.583 0-4.213 2.191-7.583 6.722-7.583 1.46 0 2.977.168 4.306.805v3.801h-4.68v5.86h11.72v-13.892C7.826-27.729 4.25-28.346 0-28.346c-8.875 0-14.716 5.148-14.716 14.173C-14.716-5.149-8.875 0 0 0" clip-path="url(#V)" style="fill:#1d1d1b;fill-opacity:1;fill-rule:nonzero;stroke:none" transform="matrix(.35278 0 0 -.35278 38.307 11.414)"/><path d="M0 0v14.473h7.92V0c0-3.67.449-6.534 4.83-6.534S17.581-3.67 17.581 0v14.473h7.92V0c0-8.519-4.045-13.125-12.751-13.125S0-8.519 0 0" clip-path="url(#W)" style="fill:#1d1d1b;fill-opacity:1;fill-rule:nonzero;stroke:none" transform="matrix(.35278 0 0 -.35278 43.935 16.784)"/><path d="M278.346 728.934h7.92v-26.849h-7.92z" clip-path="url(#X)" style="fill:#1d1d1b;fill-opacity:1;fill-rule:nonzero;stroke:none" transform="matrix(.35278 0 0 -.35278 -43.612 268.83)"/><path d="m0 0 5.879-15.184L11.777 0h10.578v-26.849h-7.92v14.548L8.781-26.849H2.977l-5.654 14.548v-14.548h-7.92V0Z" clip-path="url(#Y)" style="fill:#1d1d1b;fill-opacity:1;fill-rule:nonzero;stroke:none" transform="matrix(.35278 0 0 -.35278 62.766 11.678)"/><path d="M328.579 728.934h7.92v-26.849h-7.92z" clip-path="url(#Z)" style="fill:#1d1d1b;fill-opacity:1;fill-rule:nonzero;stroke:none" transform="matrix(.35278 0 0 -.35278 -43.612 268.83)"/><path d="M0 0v-6.59h-13.424v-3.464H-.899v-6.422h-12.525v-3.782H.187v-6.591h-21.531V0Z" clip-path="url(#aa)" style="fill:#1d1d1b;fill-opacity:1;fill-rule:nonzero;stroke:none" transform="matrix(.35278 0 0 -.35278 84.278 11.678)"/><path d="m0 0 8.893-15.109V0h7.92v-26.849H7.545l-8.893 15.11v-15.11h-7.92V0Z" clip-path="url(#ab)" style="fill:#1d1d1b;fill-opacity:1;fill-rule:nonzero;stroke:none" transform="matrix(.35278 0 0 -.35278 89.067 11.678)"/><path d="M0 0v6.59h25.482V0h-8.781v-20.258h-7.92V0Z" clip-path="url(#ac)" style="fill:#1d1d1b;fill-opacity:1;fill-rule:nonzero;stroke:none" transform="matrix(.35278 0 0 -.35278 96.187 14.003)"/><path d="M0 0c0-4.213 2.191-7.583 6.722-7.583 4.53 0 6.721 3.37 6.721 7.583s-2.191 7.583-6.721 7.583S0 4.213 0 0m6.722 14.173c8.874 0 14.716-5.149 14.716-14.173S15.596-14.173 6.722-14.173C-2.153-14.173-7.995-9.024-7.995 0s5.842 14.173 14.717 14.173" clip-path="url(#ad)" style="fill:#1d1d1b;fill-opacity:1;fill-rule:nonzero;stroke:none" transform="matrix(.35278 0 0 -.35278 108.261 16.414)"/><path d="M0 0c0-4.213 2.191-7.583 6.722-7.583 4.53 0 6.721 3.37 6.721 7.583s-2.191 7.583-6.721 7.583S0 4.213 0 0m6.722 14.173c8.874 0 14.716-5.149 14.716-14.173S15.596-14.173 6.722-14.173C-2.153-14.173-7.995-9.024-7.995 0s5.842 14.173 14.717 14.173" clip-path="url(#ae)" style="fill:#1d1d1b;fill-opacity:1;fill-rule:nonzero;stroke:none" transform="matrix(.35278 0 0 -.35278 26.507 28.02)"/><path d="M0 0h3.932C6.066 0 8.07.412 8.07 2.958c0 2.528-2.022 2.958-4.138 2.958H0Zm-7.92-14.323v26.849H3.932c6.403 0 12.132-2.228 12.132-9.568 0-3.426-2.078-6.197-5.223-7.414l5.467-9.867H7.789L3.183-6.029H0v-8.294z" clip-path="url(#af)" style="fill:#1d1d1b;fill-opacity:1;fill-rule:nonzero;stroke:none" transform="matrix(.35278 0 0 -.35278 39.76 27.702)"/><path d="m0 0 5.879-15.184L11.777 0h10.578v-26.849h-7.92v14.548L8.781-26.849H2.977l-5.654 14.548v-14.548h-7.92V0Z" clip-path="url(#ag)" style="fill:#1d1d1b;fill-opacity:1;fill-rule:nonzero;stroke:none" transform="matrix(.35278 0 0 -.35278 52.234 23.284)"/><path d="m0 0-2.621 6.759L-5.242 0Zm-17.618-10.372 10.99 26.848h8.013l10.991-26.848H4.025L2.34-6.029h-9.923l-1.685-4.343z" clip-path="url(#ah)" style="fill:#1d1d1b;fill-opacity:1;fill-rule:nonzero;stroke:none" transform="matrix(.35278 0 0 -.35278 68.653 29.096)"/><path d="M0 0v6.59h25.482V0h-8.781v-20.258h-7.92V0Z" clip-path="url(#ai)" style="fill:#1d1d1b;fill-opacity:1;fill-rule:nonzero;stroke:none" transform="matrix(.35278 0 0 -.35278 74.185 25.609)"/><path d="M369.736 696.036h7.92v-26.849h-7.92z" clip-path="url(#aj)" style="fill:#1d1d1b;fill-opacity:1;fill-rule:nonzero;stroke:none" transform="matrix(.35278 0 0 -.35278 -43.612 268.83)"/><path d="m0 0 6.272-17.131L12.544 0h8.351L10.279-26.849H2.265L-8.35 0Z" clip-path="url(#ak)" style="fill:#1d1d1b;fill-opacity:1;fill-rule:nonzero;stroke:none" transform="matrix(.35278 0 0 -.35278 95.9 23.284)"/><path d="M0 0c0-4.213 2.191-7.583 6.722-7.583 4.53 0 6.721 3.37 6.721 7.583s-2.191 7.583-6.721 7.583S0 4.213 0 0m6.722 14.173c8.874 0 14.716-5.149 14.716-14.173S15.596-14.173 6.722-14.173C-2.153-14.173-7.995-9.024-7.995 0s5.842 14.173 14.717 14.173" clip-path="url(#al)" style="fill:#1d1d1b;fill-opacity:1;fill-rule:nonzero;stroke:none" transform="matrix(.35278 0 0 -.35278 108.103 28.02)"/></svg>