<svg xmlns="http://www.w3.org/2000/svg" xmlns:svg="http://www.w3.org/2000/svg" width="115.82383mm" height="33.265324mm" viewBox="0 0 115.82383 33.265324" id="svg1"><defs id="defs1"><clipPath clipPathUnits="userSpaceOnUse" id="clipPath4"><path d="M 0,841.89 H 595.276 V 0 H 0 Z" transform="translate(-157.01631,-715.13602)" id="path4"></path></clipPath><clipPath clipPathUnits="userSpaceOnUse" id="clipPath6"><path d="M 0,841.89 H 595.276 V 0 H 0 Z" id="path6"></path></clipPath><clipPath clipPathUnits="userSpaceOnUse" id="clipPath8"><path d="M 0,841.89 H 595.276 V 0 H 0 Z" id="path8"></path></clipPath><clipPath clipPathUnits="userSpaceOnUse" id="clipPath10"><path d="M 0,841.89 H 595.276 V 0 H 0 Z" transform="translate(-154.5379,-714.88982)" id="path10"></path></clipPath><clipPath clipPathUnits="userSpaceOnUse" id="clipPath12"><path d="M 0,841.89 H 595.276 V 0 H 0 Z" transform="translate(-173.2516,-734.73042)" id="path12"></path></clipPath><clipPath clipPathUnits="userSpaceOnUse" id="clipPath14"><path d="M 0,841.89 H 595.276 V 0 H 0 Z" transform="translate(-164.8654,-710.51402)" id="path14"></path></clipPath><clipPath clipPathUnits="userSpaceOnUse" id="clipPath16"><path d="M 0,841.89 H 595.276 V 0 H 0 Z" transform="translate(-161.1958,-694.80101)" id="path16"></path></clipPath><clipPath clipPathUnits="userSpaceOnUse" id="clipPath18"><path d="M 0,841.89 H 595.276 V 0 H 0 Z" transform="translate(-213.77311,-760.48632)" id="path18"></path></clipPath><clipPath clipPathUnits="userSpaceOnUse" id="clipPath20"><path d="M 0,841.89 H 595.276 V 0 H 0 Z" transform="translate(-235.70521,-760.49172)" id="path20"></path></clipPath><clipPath clipPathUnits="userSpaceOnUse" id="clipPath22"><path d="M 0,841.89 H 595.276 V 0 H 0 Z" transform="translate(-263.01591,-753.90122)" id="path22"></path></clipPath><clipPath clipPathUnits="userSpaceOnUse" id="clipPath24"><path d="M 0,841.89 H 595.276 V 0 H 0 Z" transform="translate(-307.84191,-747.96612)" id="path24"></path></clipPath><clipPath clipPathUnits="userSpaceOnUse" id="clipPath26"><path d="M 0,841.89 H 595.276 V 0 H 0 Z" transform="translate(-341.59331,-747.06742)" id="path26"></path></clipPath><clipPath clipPathUnits="userSpaceOnUse" id="clipPath28"><path d="M 0,841.89 H 595.276 V 0 H 0 Z" transform="translate(-402.75311,-753.90122)" id="path28"></path></clipPath><clipPath clipPathUnits="userSpaceOnUse" id="clipPath30"><path d="M 0,841.89 H 595.276 V 0 H 0 Z" transform="translate(-450.39981,-760.49172)" id="path30"></path></clipPath><clipPath clipPathUnits="userSpaceOnUse" id="clipPath32"><path d="M 0,841.89 H 595.276 V 0 H 0 Z" transform="translate(-213.9388,-728.93402)" id="path32"></path></clipPath><clipPath clipPathUnits="userSpaceOnUse" id="clipPath34"><path d="M 0,841.89 H 595.276 V 0 H 0 Z" transform="translate(-232.2124,-729.68292)" id="path34"></path></clipPath><clipPath clipPathUnits="userSpaceOnUse" id="clipPath36"><path d="M 0,841.89 H 595.276 V 0 H 0 Z" transform="translate(-248.1643,-714.46112)" id="path36"></path></clipPath><clipPath clipPathUnits="userSpaceOnUse" id="clipPath38"><path d="M 0,841.89 H 595.276 V 0 H 0 Z" id="path38"></path></clipPath><clipPath clipPathUnits="userSpaceOnUse" id="clipPath40"><path d="M 0,841.89 H 595.276 V 0 H 0 Z" transform="translate(-301.54321,-728.93402)" id="path40"></path></clipPath><clipPath clipPathUnits="userSpaceOnUse" id="clipPath42"><path d="M 0,841.89 H 595.276 V 0 H 0 Z" id="path42"></path></clipPath><clipPath clipPathUnits="userSpaceOnUse" id="clipPath44"><path d="M 0,841.89 H 595.276 V 0 H 0 Z" transform="translate(-362.52371,-728.93402)" id="path44"></path></clipPath><clipPath clipPathUnits="userSpaceOnUse" id="clipPath46"><path d="M 0,841.89 H 595.276 V 0 H 0 Z" transform="translate(-376.09781,-728.93402)" id="path46"></path></clipPath><clipPath clipPathUnits="userSpaceOnUse" id="clipPath48"><path d="M 0,841.89 H 595.276 V 0 H 0 Z" transform="translate(-396.28111,-722.34352)" id="path48"></path></clipPath><clipPath clipPathUnits="userSpaceOnUse" id="clipPath50"><path d="M 0,841.89 H 595.276 V 0 H 0 Z" transform="translate(-430.50651,-715.50962)" id="path50"></path></clipPath><clipPath clipPathUnits="userSpaceOnUse" id="clipPath52"><path d="M 0,841.89 H 595.276 V 0 H 0 Z" transform="translate(-198.76311,-682.61201)" id="path52"></path></clipPath><clipPath clipPathUnits="userSpaceOnUse" id="clipPath54"><path d="M 0,841.89 H 595.276 V 0 H 0 Z" transform="translate(-236.3329,-683.51072)" id="path54"></path></clipPath><clipPath clipPathUnits="userSpaceOnUse" id="clipPath56"><path d="M 0,841.89 H 595.276 V 0 H 0 Z" transform="translate(-271.69011,-696.03632)" id="path56"></path></clipPath><clipPath clipPathUnits="userSpaceOnUse" id="clipPath58"><path d="M 0,841.89 H 595.276 V 0 H 0 Z" transform="translate(-318.23261,-679.56022)" id="path58"></path></clipPath><clipPath clipPathUnits="userSpaceOnUse" id="clipPath60"><path d="M 0,841.89 H 595.276 V 0 H 0 Z" transform="translate(-333.91271,-689.44592)" id="path60"></path></clipPath><clipPath clipPathUnits="userSpaceOnUse" id="clipPath62"><path d="M 0,841.89 H 595.276 V 0 H 0 Z" id="path62"></path></clipPath><clipPath clipPathUnits="userSpaceOnUse" id="clipPath64"><path d="M 0,841.89 H 595.276 V 0 H 0 Z" transform="translate(-395.46601,-696.03632)" id="path64"></path></clipPath><clipPath clipPathUnits="userSpaceOnUse" id="clipPath66"><path d="M 0,841.89 H 595.276 V 0 H 0 Z" transform="translate(-430.05891,-682.61201)" id="path66"></path></clipPath><clipPath clipPathUnits="userSpaceOnUse" id="clipPath68"><path d="M 0,841.89 H 595.276 V 0 H 0 Z" transform="translate(-157.01631,-715.13602)" id="path68"></path></clipPath><clipPath clipPathUnits="userSpaceOnUse" id="clipPath70"><path d="M 0,841.89 H 595.276 V 0 H 0 Z" id="path70"></path></clipPath><clipPath clipPathUnits="userSpaceOnUse" id="clipPath72"><path d="M 0,841.89 H 595.276 V 0 H 0 Z" id="path72"></path></clipPath><clipPath clipPathUnits="userSpaceOnUse" id="clipPath74"><path d="M 0,841.89 H 595.276 V 0 H 0 Z" transform="translate(-154.5379,-714.88982)" id="path74"></path></clipPath><clipPath clipPathUnits="userSpaceOnUse" id="clipPath76"><path d="M 0,841.89 H 595.276 V 0 H 0 Z" transform="translate(-173.2516,-734.73042)" id="path76"></path></clipPath><clipPath clipPathUnits="userSpaceOnUse" id="clipPath78"><path d="M 0,841.89 H 595.276 V 0 H 0 Z" transform="translate(-164.8654,-710.51402)" id="path78"></path></clipPath><clipPath clipPathUnits="userSpaceOnUse" id="clipPath80"><path d="M 0,841.89 H 595.276 V 0 H 0 Z" transform="translate(-161.1958,-694.80101)" id="path80"></path></clipPath><clipPath clipPathUnits="userSpaceOnUse" id="clipPath82"><path d="M 0,841.89 H 595.276 V 0 H 0 Z" transform="translate(-213.77311,-760.48632)" id="path82"></path></clipPath><clipPath clipPathUnits="userSpaceOnUse" id="clipPath84"><path d="M 0,841.89 H 595.276 V 0 H 0 Z" transform="translate(-235.70521,-760.49172)" id="path84"></path></clipPath><clipPath clipPathUnits="userSpaceOnUse" id="clipPath86"><path d="M 0,841.89 H 595.276 V 0 H 0 Z" transform="translate(-263.01591,-753.90122)" id="path86"></path></clipPath><clipPath clipPathUnits="userSpaceOnUse" id="clipPath88"><path d="M 0,841.89 H 595.276 V 0 H 0 Z" transform="translate(-307.84191,-747.96612)" id="path88"></path></clipPath><clipPath clipPathUnits="userSpaceOnUse" id="clipPath90"><path d="M 0,841.89 H 595.276 V 0 H 0 Z" transform="translate(-341.59331,-747.06742)" id="path90"></path></clipPath><clipPath clipPathUnits="userSpaceOnUse" id="clipPath92"><path d="M 0,841.89 H 595.276 V 0 H 0 Z" transform="translate(-402.75311,-753.90122)" id="path92"></path></clipPath><clipPath clipPathUnits="userSpaceOnUse" id="clipPath94"><path d="M 0,841.89 H 595.276 V 0 H 0 Z" transform="translate(-450.39981,-760.49172)" id="path94"></path></clipPath><clipPath clipPathUnits="userSpaceOnUse" id="clipPath96"><path d="M 0,841.89 H 595.276 V 0 H 0 Z" transform="translate(-213.9388,-728.93402)" id="path96"></path></clipPath><clipPath clipPathUnits="userSpaceOnUse" id="clipPath98"><path d="M 0,841.89 H 595.276 V 0 H 0 Z" transform="translate(-232.2124,-729.68292)" id="path98"></path></clipPath><clipPath clipPathUnits="userSpaceOnUse" id="clipPath100"><path d="M 0,841.89 H 595.276 V 0 H 0 Z" transform="translate(-248.1643,-714.46112)" id="path100"></path></clipPath><clipPath clipPathUnits="userSpaceOnUse" id="clipPath102"><path d="M 0,841.89 H 595.276 V 0 H 0 Z" id="path102"></path></clipPath><clipPath clipPathUnits="userSpaceOnUse" id="clipPath104"><path d="M 0,841.89 H 595.276 V 0 H 0 Z" transform="translate(-301.54321,-728.93402)" id="path104"></path></clipPath><clipPath clipPathUnits="userSpaceOnUse" id="clipPath106"><path d="M 0,841.89 H 595.276 V 0 H 0 Z" id="path106"></path></clipPath><clipPath clipPathUnits="userSpaceOnUse" id="clipPath108"><path d="M 0,841.89 H 595.276 V 0 H 0 Z" transform="translate(-362.52371,-728.93402)" id="path108"></path></clipPath><clipPath clipPathUnits="userSpaceOnUse" id="clipPath110"><path d="M 0,841.89 H 595.276 V 0 H 0 Z" transform="translate(-376.09781,-728.93402)" id="path110"></path></clipPath><clipPath clipPathUnits="userSpaceOnUse" id="clipPath112"><path d="M 0,841.89 H 595.276 V 0 H 0 Z" transform="translate(-396.28111,-722.34352)" id="path112"></path></clipPath><clipPath clipPathUnits="userSpaceOnUse" id="clipPath114"><path d="M 0,841.89 H 595.276 V 0 H 0 Z" transform="translate(-430.50651,-715.50962)" id="path114"></path></clipPath><clipPath clipPathUnits="userSpaceOnUse" id="clipPath116"><path d="M 0,841.89 H 595.276 V 0 H 0 Z" transform="translate(-198.76311,-682.61201)" id="path116"></path></clipPath><clipPath clipPathUnits="userSpaceOnUse" id="clipPath118"><path d="M 0,841.89 H 595.276 V 0 H 0 Z" transform="translate(-236.3329,-683.51072)" id="path118"></path></clipPath><clipPath clipPathUnits="userSpaceOnUse" id="clipPath120"><path d="M 0,841.89 H 595.276 V 0 H 0 Z" transform="translate(-271.69011,-696.03632)" id="path120"></path></clipPath><clipPath clipPathUnits="userSpaceOnUse" id="clipPath122"><path d="M 0,841.89 H 595.276 V 0 H 0 Z" transform="translate(-318.23261,-679.56022)" id="path122"></path></clipPath><clipPath clipPathUnits="userSpaceOnUse" id="clipPath124"><path d="M 0,841.89 H 595.276 V 0 H 0 Z" transform="translate(-333.91271,-689.44592)" id="path124"></path></clipPath><clipPath clipPathUnits="userSpaceOnUse" id="clipPath126"><path d="M 0,841.89 H 595.276 V 0 H 0 Z" id="path126"></path></clipPath><clipPath clipPathUnits="userSpaceOnUse" id="clipPath128"><path d="M 0,841.89 H 595.276 V 0 H 0 Z" transform="translate(-395.46601,-696.03632)" id="path128"></path></clipPath><clipPath clipPathUnits="userSpaceOnUse" id="clipPath130"><path d="M 0,841.89 H 595.276 V 0 H 0 Z" transform="translate(-430.05891,-682.61201)" id="path130"></path></clipPath></defs><g id="layer1" transform="translate(-47.095832,-131.7625)"><path id="path3" d="M 0,0 C 0.085,-19.445 29.652,-19.447 29.739,-0.001 29.654,19.444 0.087,19.445 0,0 M 29.739,-15.116 H 0 v 29.739 h 29.739 z" style="fill:#1f5da9;fill-opacity:1;fill-rule:nonzero;stroke:none" transform="matrix(0.35277776,0,0,-0.35277776,58.875543,148.30826)" clip-path="url(#clipPath4)"></path><path id="path5" d="m 154.538,732.298 h -29.739 v 29.739 h 29.739 z" style="fill:#1f5da9;fill-opacity:1;fill-rule:nonzero;stroke:none" transform="matrix(0.35277776,0,0,-0.35277776,3.4836813,400.59235)" clip-path="url(#clipPath6)"></path><path id="path7" d="m 153.364,667.742 h -29.739 v 29.739 h 29.739 z" style="fill:#1f5da9;fill-opacity:1;fill-rule:nonzero;stroke:none" transform="matrix(0.35277776,0,0,-0.35277776,3.4836813,400.59235)" clip-path="url(#clipPath8)"></path><path id="path9" d="m 0,0 c 0,-8.212 -6.657,-14.87 -14.87,-14.87 -8.212,0 -14.869,6.658 -14.869,14.87 0,8.212 6.657,14.87 14.869,14.87 C -6.657,14.87 0,8.212 0,0" style="fill:#1f5da9;fill-opacity:1;fill-rule:nonzero;stroke:none" transform="matrix(0.35277776,0,0,-0.35277776,58.001217,148.39512)" clip-path="url(#clipPath10)"></path><path id="path11" d="M 0,0 C 3.798,0 7.08,0.776 9.973,3.33 L 6.659,7.726 C 4.51,6.271 2.635,5.69 0,5.69 c -3.912,0 -5.803,2.909 -5.803,6.546 0,3.636 1.891,6.546 5.803,6.546 2.635,0 4.51,-0.582 6.659,-2.037 l 3.314,4.397 C 7.08,23.695 3.798,24.471 0,24.471 -7.661,24.471 -12.704,20.026 -12.704,12.236 -12.704,4.445 -7.661,0 0,0 m 13.504,-2.432 h -29.739 v 29.739 h 29.739 z" style="fill:#1f5da9;fill-opacity:1;fill-rule:nonzero;stroke:none" transform="matrix(0.35277776,0,0,-0.35277776,64.602994,141.3958)" clip-path="url(#clipPath12)"></path><path id="path13" d="m 0,0 c 1.9,-1.192 4.154,-1.9 6.408,-1.9 1.256,0 3.833,-0.048 3.833,1.771 0,1.498 -2.705,1.852 -3.768,2.077 -4.042,0.854 -8.937,2.609 -8.937,7.552 0,5.442 4.573,7.31 9.356,7.31 3.397,0 6.714,-0.563 9.644,-2.335 L 13.461,9.886 c -1.964,0.854 -4.106,1.256 -6.247,1.256 -1.063,0 -2.802,-0.225 -2.802,-1.642 0,-1.514 2.286,-1.787 3.381,-2.029 4.315,-0.95 9.323,-2.254 9.323,-7.6 0,-5.974 -5.41,-7.439 -10.385,-7.439 -3.446,0 -7.037,0.838 -9.806,2.979 z" style="fill:#1f5da9;fill-opacity:1;fill-rule:nonzero;stroke:none" transform="matrix(0.35277776,0,0,-0.35277776,61.644529,149.9388)" clip-path="url(#clipPath14)"></path><path id="path15" d="m 0,0 v -24.378 h 7.191 v 8.5 h 11.373 v 5.831 H 7.191 v 4.063 H 19.38 V 0 Z M 24.56,-27.059 H -5.179 V 2.68 H 24.56 Z" style="fill:#1f5da9;fill-opacity:1;fill-rule:nonzero;stroke:none" transform="matrix(0.35277776,0,0,-0.35277776,60.349976,155.482)" clip-path="url(#clipPath16)"></path><path id="path17" d="m 0,0 v -6.588 h -13.419 v -3.462 h 12.521 v -6.42 h -12.521 v -3.78 H 0.187 v -6.588 H -21.336 V 0 Z" style="fill:#1d1d1b;fill-opacity:1;fill-rule:nonzero;stroke:none" transform="matrix(0.35277776,0,0,-0.35277776,78.89808,132.30969)" clip-path="url(#clipPath18)"></path><path id="path19" d="M 0,0 8.893,-15.109 V 0 h 7.92 V -26.849 H 7.545 l -8.893,15.11 v -15.11 h -7.92 V 0 Z" style="fill:#1d1d1b;fill-opacity:1;fill-rule:nonzero;stroke:none" transform="matrix(0.35277776,0,0,-0.35277776,86.635237,132.30778)" clip-path="url(#clipPath20)"></path><path id="path21" d="M 0,0 V 6.59 H 25.482 V 0 H 16.701 V -20.258 H 8.781 V 0 Z" style="fill:#1d1d1b;fill-opacity:1;fill-rule:nonzero;stroke:none" transform="matrix(0.35277776,0,0,-0.35277776,96.269846,134.63276)" clip-path="url(#clipPath22)"></path><path id="path23" d="M 0,0 H 3.932 C 6.066,0 8.07,0.412 8.07,2.958 8.07,5.486 6.047,5.916 3.932,5.916 H 0 Z M -7.92,-14.323 V 12.526 H 3.932 c 6.403,0 12.132,-2.228 12.132,-9.568 0,-3.426 -2.078,-6.197 -5.223,-7.414 l 5.467,-9.867 H 7.789 L 3.183,-6.029 H 0 v -8.294 z" style="fill:#1d1d1b;fill-opacity:1;fill-rule:nonzero;stroke:none" transform="matrix(0.35277776,0,0,-0.35277776,112.08346,136.72654)" clip-path="url(#clipPath24)"></path><path id="path25" d="m 0,0 c 0,-4.213 2.191,-7.583 6.721,-7.583 4.531,0 6.722,3.37 6.722,7.583 0,4.213 -2.191,7.583 -6.722,7.583 C 2.191,7.583 0,4.213 0,0 m 6.721,14.173 c 8.875,0 14.717,-5.149 14.717,-14.173 0,-9.024 -5.842,-14.173 -14.717,-14.173 -8.874,0 -14.716,5.149 -14.716,14.173 0,9.024 5.842,14.173 14.716,14.173" style="fill:#1d1d1b;fill-opacity:1;fill-rule:nonzero;stroke:none" transform="matrix(0.35277776,0,0,-0.35277776,123.9902,137.04357)" clip-path="url(#clipPath26)"></path><path id="path27" d="m 0,0 v -13.668 h 3.763 c 4.513,0 6.104,2.603 6.104,6.834 C 9.867,-2.602 8.276,0 3.763,0 Z M -7.92,-20.258 V 6.59 H 3.763 c 8.875,0 14.061,-4.399 14.061,-13.424 0,-9.024 -5.167,-13.424 -14.061,-13.424 z" style="fill:#1d1d1b;fill-opacity:1;fill-rule:nonzero;stroke:none" transform="matrix(0.35277776,0,0,-0.35277776,145.56602,134.63276)" clip-path="url(#clipPath28)"></path><path id="path29" d="m 0,0 v -6.59 h -13.424 v -3.464 h 12.525 v -6.422 h -12.525 v -3.782 H 0.187 v -6.591 H -21.344 V 0 Z" style="fill:#1d1d1b;fill-opacity:1;fill-rule:nonzero;stroke:none" transform="matrix(0.35277776,0,0,-0.35277776,162.37472,132.30778)" clip-path="url(#clipPath30)"></path><path id="path31" d="m 0,0 v -6.59 h -13.424 v -3.464 h 12.525 v -6.422 h -12.525 v -3.782 H 0.187 v -6.591 H -21.344 V 0 Z" style="fill:#1d1d1b;fill-opacity:1;fill-rule:nonzero;stroke:none" transform="matrix(0.35277776,0,0,-0.35277776,78.956534,143.44064)" clip-path="url(#clipPath32)"></path><path id="path33" d="M 0,0 C 4.437,0 8.219,-0.861 11.833,-3.482 L 8.07,-8.5 C 5.486,-7.115 2.921,-6.59 0,-6.59 c -4.531,0 -6.722,-3.371 -6.722,-7.583 0,-4.213 2.191,-7.583 6.722,-7.583 1.46,0 2.977,0.168 4.306,0.805 v 3.801 h -4.68 v 5.86 h 11.72 V -25.182 C 7.826,-27.729 4.25,-28.346 0,-28.346 c -8.875,0 -14.716,5.148 -14.716,14.173 C -14.716,-5.149 -8.875,0 0,0" style="fill:#1d1d1b;fill-opacity:1;fill-rule:nonzero;stroke:none" transform="matrix(0.35277776,0,0,-0.35277776,85.403054,143.17644)" clip-path="url(#clipPath34)"></path><path id="path35" d="M 0,0 V 14.473 H 7.92 V 0 c 0,-3.67 0.449,-6.534 4.83,-6.534 4.381,0 4.831,2.864 4.831,6.534 v 14.473 h 7.92 V 0 c 0,-8.519 -4.045,-13.125 -12.751,-13.125 C 4.044,-13.125 0,-8.519 0,0" style="fill:#1d1d1b;fill-opacity:1;fill-rule:nonzero;stroke:none" transform="matrix(0.35277776,0,0,-0.35277776,91.03053,148.54635)" clip-path="url(#clipPath36)"></path><path id="path37" d="m 278.346,728.934 h 7.92 v -26.849 h -7.92 z" style="fill:#1d1d1b;fill-opacity:1;fill-rule:nonzero;stroke:none" transform="matrix(0.35277776,0,0,-0.35277776,3.4836813,400.59235)" clip-path="url(#clipPath38)"></path><path id="path39" d="M 0,0 5.879,-15.184 11.777,0 h 10.578 v -26.849 h -7.92 v 14.548 L 8.781,-26.849 H 2.977 l -5.654,14.548 v -14.548 h -7.92 V 0 Z" style="fill:#1d1d1b;fill-opacity:1;fill-rule:nonzero;stroke:none" transform="matrix(0.35277776,0,0,-0.35277776,109.86142,143.44064)" clip-path="url(#clipPath40)"></path><path id="path41" d="m 328.579,728.934 h 7.92 v -26.849 h -7.92 z" style="fill:#1d1d1b;fill-opacity:1;fill-rule:nonzero;stroke:none" transform="matrix(0.35277776,0,0,-0.35277776,3.4836813,400.59235)" clip-path="url(#clipPath42)"></path><path id="path43" d="m 0,0 v -6.59 h -13.424 v -3.464 h 12.525 v -6.422 h -12.525 v -3.782 H 0.187 v -6.591 H -21.344 V 0 Z" style="fill:#1d1d1b;fill-opacity:1;fill-rule:nonzero;stroke:none" transform="matrix(0.35277776,0,0,-0.35277776,131.37398,143.44064)" clip-path="url(#clipPath44)"></path><path id="path45" d="M 0,0 8.893,-15.109 V 0 h 7.92 V -26.849 H 7.545 l -8.893,15.11 v -15.11 h -7.92 V 0 Z" style="fill:#1d1d1b;fill-opacity:1;fill-rule:nonzero;stroke:none" transform="matrix(0.35277776,0,0,-0.35277776,136.16262,143.44064)" clip-path="url(#clipPath46)"></path><path id="path47" d="M 0,0 V 6.59 H 25.482 V 0 H 16.701 V -20.258 H 8.781 V 0 Z" style="fill:#1d1d1b;fill-opacity:1;fill-rule:nonzero;stroke:none" transform="matrix(0.35277776,0,0,-0.35277776,143.28285,145.76562)" clip-path="url(#clipPath48)"></path><path id="path49" d="m 0,0 c 0,-4.213 2.191,-7.583 6.722,-7.583 4.53,0 6.721,3.37 6.721,7.583 0,4.213 -2.191,7.583 -6.721,7.583 C 2.191,7.583 0,4.213 0,0 m 6.722,14.173 c 8.874,0 14.716,-5.149 14.716,-14.173 0,-9.024 -5.842,-14.173 -14.716,-14.173 -8.875,0 -14.717,5.149 -14.717,14.173 0,9.024 5.842,14.173 14.717,14.173" style="fill:#1d1d1b;fill-opacity:1;fill-rule:nonzero;stroke:none" transform="matrix(0.35277776,0,0,-0.35277776,155.35681,148.17647)" clip-path="url(#clipPath50)"></path><path id="path51" d="m 0,0 c 0,-4.213 2.191,-7.583 6.722,-7.583 4.53,0 6.721,3.37 6.721,7.583 0,4.213 -2.191,7.583 -6.721,7.583 C 2.191,7.583 0,4.213 0,0 m 6.722,14.173 c 8.874,0 14.716,-5.149 14.716,-14.173 0,-9.024 -5.842,-14.173 -14.716,-14.173 -8.875,0 -14.717,5.149 -14.717,14.173 0,9.024 5.842,14.173 14.717,14.173" style="fill:#1d1d1b;fill-opacity:1;fill-rule:nonzero;stroke:none" transform="matrix(0.35277776,0,0,-0.35277776,73.602886,159.78201)" clip-path="url(#clipPath52)"></path><path id="path53" d="M 0,0 H 3.932 C 6.066,0 8.07,0.412 8.07,2.958 8.07,5.486 6.048,5.916 3.932,5.916 H 0 Z M -7.92,-14.323 V 12.526 H 3.932 c 6.403,0 12.132,-2.228 12.132,-9.568 0,-3.426 -2.078,-6.197 -5.223,-7.414 l 5.467,-9.867 H 7.789 L 3.183,-6.029 H 0 v -8.294 z" style="fill:#1d1d1b;fill-opacity:1;fill-rule:nonzero;stroke:none" transform="matrix(0.35277776,0,0,-0.35277776,86.856675,159.46497)" clip-path="url(#clipPath54)"></path><path id="path55" d="M 0,0 5.879,-15.184 11.777,0 h 10.578 v -26.849 h -7.92 v 14.548 L 8.781,-26.849 H 2.977 l -5.654,14.548 v -14.548 h -7.92 V 0 Z" style="fill:#1d1d1b;fill-opacity:1;fill-rule:nonzero;stroke:none" transform="matrix(0.35277776,0,0,-0.35277776,99.329911,155.04621)" clip-path="url(#clipPath56)"></path><path id="path57" d="M 0,0 -2.621,6.759 -5.242,0 Z m -17.618,-10.372 10.99,26.848 H 1.385 L 12.376,-10.372 H 4.025 L 2.34,-6.029 h -9.923 l -1.685,-4.343 z" style="fill:#1d1d1b;fill-opacity:1;fill-rule:nonzero;stroke:none" transform="matrix(0.35277776,0,0,-0.35277776,115.74907,160.85861)" clip-path="url(#clipPath58)"></path><path id="path59" d="M 0,0 V 6.59 H 25.482 V 0 H 16.701 V -20.258 H 8.781 V 0 Z" style="fill:#1d1d1b;fill-opacity:1;fill-rule:nonzero;stroke:none" transform="matrix(0.35277776,0,0,-0.35277776,121.28066,157.37116)" clip-path="url(#clipPath60)"></path><path id="path61" d="m 369.736,696.036 h 7.92 v -26.849 h -7.92 z" style="fill:#1d1d1b;fill-opacity:1;fill-rule:nonzero;stroke:none" transform="matrix(0.35277776,0,0,-0.35277776,3.4836813,400.59235)" clip-path="url(#clipPath62)"></path><path id="path63" d="M 0,0 6.272,-17.131 12.544,0 h 8.351 L 10.279,-26.849 H 2.265 L -8.35,0 Z" style="fill:#1d1d1b;fill-opacity:1;fill-rule:nonzero;stroke:none" transform="matrix(0.35277776,0,0,-0.35277776,142.9953,155.04621)" clip-path="url(#clipPath64)"></path><path id="path65" d="m 0,0 c 0,-4.213 2.191,-7.583 6.722,-7.583 4.53,0 6.721,3.37 6.721,7.583 0,4.213 -2.191,7.583 -6.721,7.583 C 2.191,7.583 0,4.213 0,0 m 6.722,14.173 c 8.874,0 14.716,-5.149 14.716,-14.173 0,-9.024 -5.842,-14.173 -14.716,-14.173 -8.875,0 -14.717,5.149 -14.717,14.173 0,9.024 5.842,14.173 14.717,14.173" style="fill:#1d1d1b;fill-opacity:1;fill-rule:nonzero;stroke:none" transform="matrix(0.35277776,0,0,-0.35277776,155.1989,159.78201)" clip-path="url(#clipPath66)"></path><path id="path67" d="M 0,0 C 0.085,-19.445 29.652,-19.447 29.739,-0.001 29.654,19.444 0.087,19.445 0,0 M 29.739,-15.116 H 0 v 29.739 h 29.739 z" style="fill:#1f5da9;fill-opacity:1;fill-rule:nonzero;stroke:none" transform="matrix(0.35277776,0,0,-0.35277776,58.875543,148.30826)" clip-path="url(#clipPath68)"></path><path id="path69" d="m 154.538,732.298 h -29.739 v 29.739 h 29.739 z" style="fill:#1f5da9;fill-opacity:1;fill-rule:nonzero;stroke:none" transform="matrix(0.35277776,0,0,-0.35277776,3.4836813,400.59235)" clip-path="url(#clipPath70)"></path><path id="path71" d="m 153.364,667.742 h -29.739 v 29.739 h 29.739 z" style="fill:#1f5da9;fill-opacity:1;fill-rule:nonzero;stroke:none" transform="matrix(0.35277776,0,0,-0.35277776,3.4836813,400.59235)" clip-path="url(#clipPath72)"></path><path id="path73" d="m 0,0 c 0,-8.212 -6.657,-14.87 -14.87,-14.87 -8.212,0 -14.869,6.658 -14.869,14.87 0,8.212 6.657,14.87 14.869,14.87 C -6.657,14.87 0,8.212 0,0" style="fill:#1f5da9;fill-opacity:1;fill-rule:nonzero;stroke:none" transform="matrix(0.35277776,0,0,-0.35277776,58.001217,148.39512)" clip-path="url(#clipPath74)"></path><path id="path75" d="M 0,0 C 3.798,0 7.08,0.776 9.973,3.33 L 6.659,7.726 C 4.51,6.271 2.635,5.69 0,5.69 c -3.912,0 -5.803,2.909 -5.803,6.546 0,3.636 1.891,6.546 5.803,6.546 2.635,0 4.51,-0.582 6.659,-2.037 l 3.314,4.397 C 7.08,23.695 3.798,24.471 0,24.471 -7.661,24.471 -12.704,20.026 -12.704,12.236 -12.704,4.445 -7.661,0 0,0 m 13.504,-2.432 h -29.739 v 29.739 h 29.739 z" style="fill:#1f5da9;fill-opacity:1;fill-rule:nonzero;stroke:none" transform="matrix(0.35277776,0,0,-0.35277776,64.602994,141.3958)" clip-path="url(#clipPath76)"></path><path id="path77" d="m 0,0 c 1.9,-1.192 4.154,-1.9 6.408,-1.9 1.256,0 3.833,-0.048 3.833,1.771 0,1.498 -2.705,1.852 -3.768,2.077 -4.042,0.854 -8.937,2.609 -8.937,7.552 0,5.442 4.573,7.31 9.356,7.31 3.397,0 6.714,-0.563 9.644,-2.335 L 13.461,9.886 c -1.964,0.854 -4.106,1.256 -6.247,1.256 -1.063,0 -2.802,-0.225 -2.802,-1.642 0,-1.514 2.286,-1.787 3.381,-2.029 4.315,-0.95 9.323,-2.254 9.323,-7.6 0,-5.974 -5.41,-7.439 -10.385,-7.439 -3.446,0 -7.037,0.838 -9.806,2.979 z" style="fill:#1f5da9;fill-opacity:1;fill-rule:nonzero;stroke:none" transform="matrix(0.35277776,0,0,-0.35277776,61.644529,149.9388)" clip-path="url(#clipPath78)"></path><path id="path79" d="m 0,0 v -24.378 h 7.191 v 8.5 h 11.373 v 5.831 H 7.191 v 4.063 H 19.38 V 0 Z M 24.56,-27.059 H -5.179 V 2.68 H 24.56 Z" style="fill:#1f5da9;fill-opacity:1;fill-rule:nonzero;stroke:none" transform="matrix(0.35277776,0,0,-0.35277776,60.349976,155.482)" clip-path="url(#clipPath80)"></path><path id="path81" d="m 0,0 v -6.588 h -13.419 v -3.462 h 12.521 v -6.42 h -12.521 v -3.78 H 0.187 v -6.588 H -21.336 V 0 Z" style="fill:#1d1d1b;fill-opacity:1;fill-rule:nonzero;stroke:none" transform="matrix(0.35277776,0,0,-0.35277776,78.89808,132.30969)" clip-path="url(#clipPath82)"></path><path id="path83" d="M 0,0 8.893,-15.109 V 0 h 7.92 V -26.849 H 7.545 l -8.893,15.11 v -15.11 h -7.92 V 0 Z" style="fill:#1d1d1b;fill-opacity:1;fill-rule:nonzero;stroke:none" transform="matrix(0.35277776,0,0,-0.35277776,86.635237,132.30778)" clip-path="url(#clipPath84)"></path><path id="path85" d="M 0,0 V 6.59 H 25.482 V 0 H 16.701 V -20.258 H 8.781 V 0 Z" style="fill:#1d1d1b;fill-opacity:1;fill-rule:nonzero;stroke:none" transform="matrix(0.35277776,0,0,-0.35277776,96.269846,134.63276)" clip-path="url(#clipPath86)"></path><path id="path87" d="M 0,0 H 3.932 C 6.066,0 8.07,0.412 8.07,2.958 8.07,5.486 6.047,5.916 3.932,5.916 H 0 Z M -7.92,-14.323 V 12.526 H 3.932 c 6.403,0 12.132,-2.228 12.132,-9.568 0,-3.426 -2.078,-6.197 -5.223,-7.414 l 5.467,-9.867 H 7.789 L 3.183,-6.029 H 0 v -8.294 z" style="fill:#1d1d1b;fill-opacity:1;fill-rule:nonzero;stroke:none" transform="matrix(0.35277776,0,0,-0.35277776,112.08346,136.72654)" clip-path="url(#clipPath88)"></path><path id="path89" d="m 0,0 c 0,-4.213 2.191,-7.583 6.721,-7.583 4.531,0 6.722,3.37 6.722,7.583 0,4.213 -2.191,7.583 -6.722,7.583 C 2.191,7.583 0,4.213 0,0 m 6.721,14.173 c 8.875,0 14.717,-5.149 14.717,-14.173 0,-9.024 -5.842,-14.173 -14.717,-14.173 -8.874,0 -14.716,5.149 -14.716,14.173 0,9.024 5.842,14.173 14.716,14.173" style="fill:#1d1d1b;fill-opacity:1;fill-rule:nonzero;stroke:none" transform="matrix(0.35277776,0,0,-0.35277776,123.9902,137.04357)" clip-path="url(#clipPath90)"></path><path id="path91" d="m 0,0 v -13.668 h 3.763 c 4.513,0 6.104,2.603 6.104,6.834 C 9.867,-2.602 8.276,0 3.763,0 Z M -7.92,-20.258 V 6.59 H 3.763 c 8.875,0 14.061,-4.399 14.061,-13.424 0,-9.024 -5.167,-13.424 -14.061,-13.424 z" style="fill:#1d1d1b;fill-opacity:1;fill-rule:nonzero;stroke:none" transform="matrix(0.35277776,0,0,-0.35277776,145.56602,134.63276)" clip-path="url(#clipPath92)"></path><path id="path93" d="m 0,0 v -6.59 h -13.424 v -3.464 h 12.525 v -6.422 h -12.525 v -3.782 H 0.187 v -6.591 H -21.344 V 0 Z" style="fill:#1d1d1b;fill-opacity:1;fill-rule:nonzero;stroke:none" transform="matrix(0.35277776,0,0,-0.35277776,162.37472,132.30778)" clip-path="url(#clipPath94)"></path><path id="path95" d="m 0,0 v -6.59 h -13.424 v -3.464 h 12.525 v -6.422 h -12.525 v -3.782 H 0.187 v -6.591 H -21.344 V 0 Z" style="fill:#1d1d1b;fill-opacity:1;fill-rule:nonzero;stroke:none" transform="matrix(0.35277776,0,0,-0.35277776,78.956534,143.44064)" clip-path="url(#clipPath96)"></path><path id="path97" d="M 0,0 C 4.437,0 8.219,-0.861 11.833,-3.482 L 8.07,-8.5 C 5.486,-7.115 2.921,-6.59 0,-6.59 c -4.531,0 -6.722,-3.371 -6.722,-7.583 0,-4.213 2.191,-7.583 6.722,-7.583 1.46,0 2.977,0.168 4.306,0.805 v 3.801 h -4.68 v 5.86 h 11.72 V -25.182 C 7.826,-27.729 4.25,-28.346 0,-28.346 c -8.875,0 -14.716,5.148 -14.716,14.173 C -14.716,-5.149 -8.875,0 0,0" style="fill:#1d1d1b;fill-opacity:1;fill-rule:nonzero;stroke:none" transform="matrix(0.35277776,0,0,-0.35277776,85.403054,143.17644)" clip-path="url(#clipPath98)"></path><path id="path99" d="M 0,0 V 14.473 H 7.92 V 0 c 0,-3.67 0.449,-6.534 4.83,-6.534 4.381,0 4.831,2.864 4.831,6.534 v 14.473 h 7.92 V 0 c 0,-8.519 -4.045,-13.125 -12.751,-13.125 C 4.044,-13.125 0,-8.519 0,0" style="fill:#1d1d1b;fill-opacity:1;fill-rule:nonzero;stroke:none" transform="matrix(0.35277776,0,0,-0.35277776,91.03053,148.54635)" clip-path="url(#clipPath100)"></path><path id="path101" d="m 278.346,728.934 h 7.92 v -26.849 h -7.92 z" style="fill:#1d1d1b;fill-opacity:1;fill-rule:nonzero;stroke:none" transform="matrix(0.35277776,0,0,-0.35277776,3.4836813,400.59235)" clip-path="url(#clipPath102)"></path><path id="path103" d="M 0,0 5.879,-15.184 11.777,0 h 10.578 v -26.849 h -7.92 v 14.548 L 8.781,-26.849 H 2.977 l -5.654,14.548 v -14.548 h -7.92 V 0 Z" style="fill:#1d1d1b;fill-opacity:1;fill-rule:nonzero;stroke:none" transform="matrix(0.35277776,0,0,-0.35277776,109.86142,143.44064)" clip-path="url(#clipPath104)"></path><path id="path105" d="m 328.579,728.934 h 7.92 v -26.849 h -7.92 z" style="fill:#1d1d1b;fill-opacity:1;fill-rule:nonzero;stroke:none" transform="matrix(0.35277776,0,0,-0.35277776,3.4836813,400.59235)" clip-path="url(#clipPath106)"></path><path id="path107" d="m 0,0 v -6.59 h -13.424 v -3.464 h 12.525 v -6.422 h -12.525 v -3.782 H 0.187 v -6.591 H -21.344 V 0 Z" style="fill:#1d1d1b;fill-opacity:1;fill-rule:nonzero;stroke:none" transform="matrix(0.35277776,0,0,-0.35277776,131.37398,143.44064)" clip-path="url(#clipPath108)"></path><path id="path109" d="M 0,0 8.893,-15.109 V 0 h 7.92 V -26.849 H 7.545 l -8.893,15.11 v -15.11 h -7.92 V 0 Z" style="fill:#1d1d1b;fill-opacity:1;fill-rule:nonzero;stroke:none" transform="matrix(0.35277776,0,0,-0.35277776,136.16262,143.44064)" clip-path="url(#clipPath110)"></path><path id="path111" d="M 0,0 V 6.59 H 25.482 V 0 H 16.701 V -20.258 H 8.781 V 0 Z" style="fill:#1d1d1b;fill-opacity:1;fill-rule:nonzero;stroke:none" transform="matrix(0.35277776,0,0,-0.35277776,143.28285,145.76562)" clip-path="url(#clipPath112)"></path><path id="path113" d="m 0,0 c 0,-4.213 2.191,-7.583 6.722,-7.583 4.53,0 6.721,3.37 6.721,7.583 0,4.213 -2.191,7.583 -6.721,7.583 C 2.191,7.583 0,4.213 0,0 m 6.722,14.173 c 8.874,0 14.716,-5.149 14.716,-14.173 0,-9.024 -5.842,-14.173 -14.716,-14.173 -8.875,0 -14.717,5.149 -14.717,14.173 0,9.024 5.842,14.173 14.717,14.173" style="fill:#1d1d1b;fill-opacity:1;fill-rule:nonzero;stroke:none" transform="matrix(0.35277776,0,0,-0.35277776,155.35681,148.17647)" clip-path="url(#clipPath114)"></path><path id="path115" d="m 0,0 c 0,-4.213 2.191,-7.583 6.722,-7.583 4.53,0 6.721,3.37 6.721,7.583 0,4.213 -2.191,7.583 -6.721,7.583 C 2.191,7.583 0,4.213 0,0 m 6.722,14.173 c 8.874,0 14.716,-5.149 14.716,-14.173 0,-9.024 -5.842,-14.173 -14.716,-14.173 -8.875,0 -14.717,5.149 -14.717,14.173 0,9.024 5.842,14.173 14.717,14.173" style="fill:#1d1d1b;fill-opacity:1;fill-rule:nonzero;stroke:none" transform="matrix(0.35277776,0,0,-0.35277776,73.602886,159.78201)" clip-path="url(#clipPath116)"></path><path id="path117" d="M 0,0 H 3.932 C 6.066,0 8.07,0.412 8.07,2.958 8.07,5.486 6.048,5.916 3.932,5.916 H 0 Z M -7.92,-14.323 V 12.526 H 3.932 c 6.403,0 12.132,-2.228 12.132,-9.568 0,-3.426 -2.078,-6.197 -5.223,-7.414 l 5.467,-9.867 H 7.789 L 3.183,-6.029 H 0 v -8.294 z" style="fill:#1d1d1b;fill-opacity:1;fill-rule:nonzero;stroke:none" transform="matrix(0.35277776,0,0,-0.35277776,86.856675,159.46497)" clip-path="url(#clipPath118)"></path><path id="path119" d="M 0,0 5.879,-15.184 11.777,0 h 10.578 v -26.849 h -7.92 v 14.548 L 8.781,-26.849 H 2.977 l -5.654,14.548 v -14.548 h -7.92 V 0 Z" style="fill:#1d1d1b;fill-opacity:1;fill-rule:nonzero;stroke:none" transform="matrix(0.35277776,0,0,-0.35277776,99.329911,155.04621)" clip-path="url(#clipPath120)"></path><path id="path121" d="M 0,0 -2.621,6.759 -5.242,0 Z m -17.618,-10.372 10.99,26.848 H 1.385 L 12.376,-10.372 H 4.025 L 2.34,-6.029 h -9.923 l -1.685,-4.343 z" style="fill:#1d1d1b;fill-opacity:1;fill-rule:nonzero;stroke:none" transform="matrix(0.35277776,0,0,-0.35277776,115.74907,160.85861)" clip-path="url(#clipPath122)"></path><path id="path123" d="M 0,0 V 6.59 H 25.482 V 0 H 16.701 V -20.258 H 8.781 V 0 Z" style="fill:#1d1d1b;fill-opacity:1;fill-rule:nonzero;stroke:none" transform="matrix(0.35277776,0,0,-0.35277776,121.28066,157.37116)" clip-path="url(#clipPath124)"></path><path id="path125" d="m 369.736,696.036 h 7.92 v -26.849 h -7.92 z" style="fill:#1d1d1b;fill-opacity:1;fill-rule:nonzero;stroke:none" transform="matrix(0.35277776,0,0,-0.35277776,3.4836813,400.59235)" clip-path="url(#clipPath126)"></path><path id="path127" d="M 0,0 6.272,-17.131 12.544,0 h 8.351 L 10.279,-26.849 H 2.265 L -8.35,0 Z" style="fill:#1d1d1b;fill-opacity:1;fill-rule:nonzero;stroke:none" transform="matrix(0.35277776,0,0,-0.35277776,142.9953,155.04621)" clip-path="url(#clipPath128)"></path><path id="path129" d="m 0,0 c 0,-4.213 2.191,-7.583 6.722,-7.583 4.53,0 6.721,3.37 6.721,7.583 0,4.213 -2.191,7.583 -6.721,7.583 C 2.191,7.583 0,4.213 0,0 m 6.722,14.173 c 8.874,0 14.716,-5.149 14.716,-14.173 0,-9.024 -5.842,-14.173 -14.716,-14.173 -8.875,0 -14.717,5.149 -14.717,14.173 0,9.024 5.842,14.173 14.717,14.173" style="fill:#1d1d1b;fill-opacity:1;fill-rule:nonzero;stroke:none" transform="matrix(0.35277776,0,0,-0.35277776,155.1989,159.78201)" clip-path="url(#clipPath130)"></path></g></svg>