<?xml version="1.0" encoding="UTF-8"?> <svg xmlns="http://www.w3.org/2000/svg" xmlns:xlink="http://www.w3.org/1999/xlink" version="1.1" id="Capa_1" x="0px" y="0px" viewBox="0 0 286.8 64.3" style="enable-background:new 0 0 286.8 64.3;" xml:space="preserve"> <g> <g> <path d="M233.3,29.8h0.9c1.5,0,2.3,0.7,2.3,2.2v10h-2.3v-9.7c0-0.3-0.1-0.5-0.2-0.6c-0.1-0.1-0.3-0.1-0.6-0.1h-0.9 c-0.3,0-0.5,0.1-0.6,0.2s-0.2,0.4-0.2,0.7v9.6h-2.3V29.8h2.3v1C231.9,30.2,232.5,29.8,233.3,29.8z"></path> <path d="M240.9,29.8h2.5c1.6,0,2.4,0.7,2.4,2.2v4.6h-5v2.9c0,0.3,0.1,0.5,0.2,0.6c0.1,0.1,0.3,0.2,0.6,0.2h1.2 c0.3,0,0.5-0.1,0.6-0.2c0.1-0.1,0.2-0.3,0.2-0.6v-1h2.2v1.3c0,1.5-0.8,2.2-2.3,2.2h-2.4c-1.6,0-2.3-0.7-2.3-2.2V32 C238.6,30.6,239.4,29.8,240.9,29.8z M240.8,35h2.7v-2.7c0-0.3,0-0.5-0.1-0.6s-0.3-0.2-0.6-0.2h-1.2c-0.3,0-0.5,0.1-0.6,0.2 s-0.2,0.3-0.2,0.6L240.8,35L240.8,35z"></path> <path d="M258,29.8h2.1l-2.3,12.3h-3l-1.5-9.3l-1.5,9.3h-3l-2.2-12.3h2.1l1.6,10.3l1.6-10.3h2.7l1.5,10.3L258,29.8z"></path> <path d="M265.5,39.7v-2c0-0.3-0.1-0.5-0.2-0.6S265,37,264.7,37h-1.3c-1.6,0-2.3-0.7-2.3-2.2v-2.6c0-1.5,0.8-2.2,2.3-2.2h1.8 c1.6,0,2.4,0.7,2.4,2.2v1.2h-2.2v-1c0-0.3-0.1-0.5-0.2-0.6s-0.3-0.1-0.6-0.1H264c-0.3,0-0.5,0-0.6,0.1s-0.2,0.3-0.2,0.6v2.1 c0,0.3,0.1,0.5,0.2,0.6s0.3,0.1,0.6,0.1h1.3c1.5,0,2.3,0.7,2.3,2.2v2.5c0,1.5-0.8,2.2-2.3,2.2h-1.9c-1.6,0-2.3-0.7-2.3-2.2v-1.2 h2.2v1c0,0.3,0.1,0.5,0.2,0.6s0.3,0.1,0.6,0.1h0.6c0.3,0,0.5,0,0.6-0.1S265.5,40,265.5,39.7z"></path> </g> <g> <g id="Capa_2_00000017513799878174233560000006402006427344526750_"> <g id="Capa_1-2_00000017514359106302604040000005982393004372906901_"> <path d="M33.3,2.4C16.6,2.4,3.1,15.9,3.1,32.5s13.5,30.1,30.1,30.1s30.1-13.5,30.1-30.1l0,0C63.4,15.9,49.9,2.4,33.3,2.4z M33.3,58C19.2,58,7.8,46.6,7.8,32.5S19.2,7,33.2,7c7.5,0,14.7,3.3,19.5,9.1L43.3,16c-0.3-0.1-0.6-0.2-0.8-0.4 c-5.2-4.4-12.9-3.7-17.3,1.5c-1.7,2-2.7,4.6-2.9,7.3c-0.2,2.4-0.5,4.8-0.8,7.1c-0.3,2.9-0.6,5.8-1,8.6c-0.3,1.7-0.2,3.4,0.3,5 c1,3,3.8,5.2,7,5.5c3.3,0.5,6.5-1.1,8.2-3.9c1.2-1.9,2.4-3.7,3.6-5.6c0.2-0.3,0.4-0.5,0.8-0.3C43,42,46,41,47.2,38.6 c0.4-0.7,0.6-1.5,0.5-2.3h10.6C56.5,48.7,45.8,57.9,33.3,58z M42.8,33.6c1.5,0,2.7,1.2,2.7,2.7S44.3,39,42.8,39 s-2.7-1.2-2.7-2.7c0,0,0,0,0-0.1C40.1,34.8,41.3,33.6,42.8,33.6L42.8,33.6L42.8,33.6z M34.7,34.2c-4.9-0.1-8.8-4.1-8.8-9 c0.1-4.9,4.1-8.8,9-8.8c4.9,0.1,8.8,4.1,8.8,9c0,0.1,0,0.2,0,0.3C43.5,30.5,39.5,34.3,34.7,34.2z"></path> <path d="M39.6,23.2c-0.6,0-1.1,0-1.7,0c-0.6,0-0.9-0.3-0.9-0.9s0-1.2,0-1.8c0-0.4-0.3-0.8-0.7-0.8c-0.1,0-0.1,0-0.2,0 c-0.8,0-1.7,0-2.5,0c-0.7,0-0.9,0.2-0.9,0.9c0,0.5,0,0.9,0,1.4c0,1-0.2,1.2-1.2,1.2H30c-0.7,0-0.9,0.3-0.9,0.9 c0,0.8,0,1.6,0,2.5s0.3,0.9,1,0.9h1.6c0.7,0,0.9,0.3,0.9,0.9s0,1.2,0,1.8c-0.1,0.4,0.3,0.8,0.7,0.9c0.1,0,0.2,0,0.2,0H36 c0.6,0,0.9-0.3,0.9-0.9v-1.4c0-1,0.2-1.2,1.2-1.2h1.5c0.4,0.1,0.8-0.2,0.9-0.6c0-0.1,0-0.2,0-0.3c0-0.9,0-1.7,0-2.5 C40.5,23.4,40.3,23.2,39.6,23.2z"></path> <path d="M84,47.6h16.2v9.2H71.1V9.3h28.5v9.3H84v9.7h13.4v9.2H84V47.6z"></path> <path d="M122.5,46v-6.7c0-1.1-0.6-1.6-1.9-1.6h-7.1c-3.6,0-6.2-0.8-7.7-2.4c-1.5-1.6-2.3-3.9-2.3-6.9v-9.8 c0-6.1,3.6-9.2,10.8-9.2h10.1c7.2,0,10.8,3.1,10.8,9.2v5.7h-12.9v-4c0-1.1-0.6-1.6-1.9-1.6h-2.1c-1.2,0-1.9,0.5-1.9,1.6v7 c0,1.1,0.6,1.6,1.9,1.6h7c3.7,0,6.3,0.8,7.8,2.3c1.6,1.5,2.3,3.8,2.3,6.7v9.8c0,6.1-3.6,9.2-10.8,9.2h-10 c-7.3,0-10.9-3.1-10.9-9.2V42h13v4c0,1.1,0.6,1.6,1.9,1.6h2.1C121.9,47.6,122.5,47.1,122.5,46z"></path> <path d="M140.7,9.3h22c7.3,0,10.9,3.1,10.9,9.2v13.6c0,6.1-3.6,9.2-10.9,9.2h-9v15.5h-13V9.3z M160.6,30.4V20.2 c0-1.1-0.6-1.6-1.9-1.6h-5.1v13.5h5.1C159.9,32.1,160.6,31.5,160.6,30.4z"></path> <path d="M189.5,56.9H178V9.3h14.1l7.7,25.4l7.7-25.4h14.1v47.5h-11.5V26.7l-5.9,19.9h-8.9l-5.8-19.8L189.5,56.9L189.5,56.9z"></path> <rect x="229.2" y="54.4" width="16.4" height="2.4"></rect> </g> </g> <g> <path d="M234,9.4h2.3v13.5c0,1.5-0.8,2.2-2.4,2.2h-4.2v-1.8h3.5c0.3,0,0.5-0.1,0.6-0.2s0.2-0.3,0.2-0.6v-2.1 c-0.2,0.7-0.7,1-1.6,1h-0.9c-1.5,0-2.3-0.7-2.3-2.2v-7.7c0-1.5,0.8-2.2,2.3-2.2h0.9c0.8,0,1.3,0.3,1.6,1L234,9.4L234,9.4z M232.3,19.7h0.9c0.3,0,0.5-0.1,0.6-0.2s0.2-0.4,0.2-0.7v-6.7c0-0.3-0.1-0.5-0.2-0.7c-0.1-0.1-0.3-0.2-0.6-0.2h-0.9 c-0.3,0-0.5,0-0.6,0.1s-0.2,0.3-0.2,0.6v7c0,0.3,0.1,0.5,0.2,0.6C231.8,19.6,232,19.7,232.3,19.7z"></path> <path d="M243.1,9.4h2.3v12.3h-2.3v-1c-0.2,0.7-0.7,1-1.6,1h-0.9c-1.5,0-2.3-0.7-2.3-2.2v-7.8c0-1.5,0.8-2.2,2.3-2.2h0.9 c0.8,0,1.3,0.3,1.6,1V9.4z M241.4,19.8h0.9c0.3,0,0.5-0.1,0.6-0.2s0.2-0.4,0.2-0.7v-6.8c0-0.3-0.1-0.5-0.2-0.7 c-0.1-0.1-0.3-0.2-0.6-0.2h-0.9c-0.3,0-0.5,0-0.6,0.1s-0.2,0.3-0.2,0.6V19c0,0.3,0.1,0.5,0.2,0.6 C240.9,19.8,241.1,19.8,241.4,19.8z"></path> <path d="M256.1,9.4h0.9c1.5,0,2.3,0.7,2.3,2.2v10H257V12c0-0.3,0-0.5-0.1-0.6s-0.3-0.1-0.6-0.1h-0.9c-0.5,0-0.8,0.3-0.8,0.9v9.6 h-2.3V12c0-0.3-0.1-0.5-0.2-0.6c-0.1-0.1-0.3-0.1-0.6-0.1h-0.9c-0.3,0-0.5,0.1-0.6,0.2c-0.1,0.1-0.2,0.4-0.2,0.7v9.6h-2.3V9.4 h2.3v1c0.2-0.7,0.7-1,1.6-1h0.9c1.1,0,1.8,0.4,2.1,1.1C254.6,9.8,255.2,9.4,256.1,9.4z"></path> <path d="M261.3,7V4.8h2.4V7H261.3z M263.6,21.7h-2.3V9.4h2.3V21.7z"></path> <path d="M269.7,9.4h0.9c1.5,0,2.3,0.7,2.3,2.2v10h-2.3V12c0-0.3-0.1-0.5-0.2-0.6s-0.3-0.1-0.6-0.1H269c-0.3,0-0.5,0.1-0.6,0.2 c-0.1,0.1-0.2,0.4-0.2,0.7v9.6h-2.3V9.4h2.3v1C268.3,9.7,268.9,9.4,269.7,9.4z"></path> <path d="M279.6,9.4h2.3v13.5c0,1.5-0.8,2.2-2.4,2.2h-4.2v-1.8h3.5c0.3,0,0.5-0.1,0.6-0.2s0.2-0.3,0.2-0.6v-2.1 c-0.2,0.7-0.7,1-1.6,1h-0.9c-1.5,0-2.3-0.7-2.3-2.2v-7.7c0-1.5,0.8-2.2,2.3-2.2h0.9c0.8,0,1.3,0.3,1.6,1V9.4z M277.9,19.7h0.9 c0.3,0,0.5-0.1,0.6-0.2s0.2-0.4,0.2-0.7v-6.7c0-0.3-0.1-0.5-0.2-0.7c-0.1-0.1-0.3-0.2-0.6-0.2h-0.9c-0.3,0-0.5,0-0.6,0.1 s-0.2,0.3-0.2,0.6v7c0,0.3,0.1,0.5,0.2,0.6C277.4,19.6,277.6,19.7,277.9,19.7z"></path> </g> </g> </g> </svg> 