<svg xmlns="http://www.w3.org/2000/svg" xml:space="preserve" viewBox="0 0 286.8 64.3"><path d="M233.3 29.8h.9c1.5 0 2.3.7 2.3 2.2v10h-2.3v-9.7c0-.3-.1-.5-.2-.6s-.3-.1-.6-.1h-.9c-.3 0-.5.1-.6.2s-.2.4-.2.7v9.6h-2.3V29.8h2.3v1c.2-.6.8-1 1.6-1M240.9 29.8h2.5c1.6 0 2.4.7 2.4 2.2v4.6h-5v2.9c0 .3.1.5.2.6s.3.2.6.2h1.2c.3 0 .5-.1.6-.2s.2-.3.2-.6v-1h2.2v1.3c0 1.5-.8 2.2-2.3 2.2h-2.4c-1.6 0-2.3-.7-2.3-2.2V32c-.2-1.4.6-2.2 2.1-2.2m-.1 5.2h2.7v-2.7c0-.3 0-.5-.1-.6s-.3-.2-.6-.2h-1.2c-.3 0-.5.1-.6.2s-.2.3-.2.6zM258 29.8h2.1l-2.3 12.3h-3l-1.5-9.3-1.5 9.3h-3l-2.2-12.3h2.1l1.6 10.3 1.6-10.3h2.7l1.5 10.3zM265.5 39.7v-2c0-.3-.1-.5-.2-.6s-.3-.1-.6-.1h-1.3c-1.6 0-2.3-.7-2.3-2.2v-2.6c0-1.5.8-2.2 2.3-2.2h1.8c1.6 0 2.4.7 2.4 2.2v1.2h-2.2v-1c0-.3-.1-.5-.2-.6s-.3-.1-.6-.1h-.6c-.3 0-.5 0-.6.1s-.2.3-.2.6v2.1c0 .3.1.5.2.6s.3.1.6.1h1.3c1.5 0 2.3.7 2.3 2.2v2.5c0 1.5-.8 2.2-2.3 2.2h-1.9c-1.6 0-2.3-.7-2.3-2.2v-1.2h2.2v1c0 .3.1.5.2.6s.3.1.6.1h.6c.3 0 .5 0 .6-.1s.2-.3.2-.6M33.3 2.4C16.6 2.4 3.1 15.9 3.1 32.5s13.5 30.1 30.1 30.1 30.1-13.5 30.1-30.1c.1-16.6-13.4-30.1-30-30.1m0 55.6C19.2 58 7.8 46.6 7.8 32.5S19.2 7 33.2 7c7.5 0 14.7 3.3 19.5 9.1l-9.4-.1c-.3-.1-.6-.2-.8-.4-5.2-4.4-12.9-3.7-17.3 1.5-1.7 2-2.7 4.6-2.9 7.3-.2 2.4-.5 4.8-.8 7.1-.3 2.9-.6 5.8-1 8.6-.3 1.7-.2 3.4.3 5 1 3 3.8 5.2 7 5.5 3.3.5 6.5-1.1 8.2-3.9 1.2-1.9 2.4-3.7 3.6-5.6.2-.3.4-.5.8-.3 2.6 1.2 5.6.2 6.8-2.2.4-.7.6-1.5.5-2.3h10.6c-1.8 12.4-12.5 21.6-25 21.7m9.5-24.4c1.5 0 2.7 1.2 2.7 2.7S44.3 39 42.8 39s-2.7-1.2-2.7-2.7v-.1c0-1.4 1.2-2.6 2.7-2.6m-8.1.6c-4.9-.1-8.8-4.1-8.8-9 .1-4.9 4.1-8.8 9-8.8 4.9.1 8.8 4.1 8.8 9v.3c-.2 4.8-4.2 8.6-9 8.5"/><path d="M39.6 23.2h-1.7q-.9 0-.9-.9v-1.8c0-.4-.3-.8-.7-.8h-2.7c-.7 0-.9.2-.9.9V22c0 1-.2 1.2-1.2 1.2H30c-.7 0-.9.3-.9.9v2.5c0 .9.3.9 1 .9h1.6c.7 0 .9.3.9.9v1.8c-.1.4.3.8.7.9H36q.9 0 .9-.9v-1.4c0-1 .2-1.2 1.2-1.2h1.5c.4.1.8-.2.9-.6v-2.8c0-.8-.2-1-.9-1M84 47.6h16.2v9.2H71.1V9.3h28.5v9.3H84v9.7h13.4v9.2H84zM122.5 46v-6.7c0-1.1-.6-1.6-1.9-1.6h-7.1c-3.6 0-6.2-.8-7.7-2.4s-2.3-3.9-2.3-6.9v-9.8c0-6.1 3.6-9.2 10.8-9.2h10.1c7.2 0 10.8 3.1 10.8 9.2v5.7h-12.9v-4c0-1.1-.6-1.6-1.9-1.6h-2.1c-1.2 0-1.9.5-1.9 1.6v7c0 1.1.6 1.6 1.9 1.6h7c3.7 0 6.3.8 7.8 2.3 1.6 1.5 2.3 3.8 2.3 6.7v9.8c0 6.1-3.6 9.2-10.8 9.2h-10c-7.3 0-10.9-3.1-10.9-9.2V42h13v4c0 1.1.6 1.6 1.9 1.6h2.1c1.2 0 1.8-.5 1.8-1.6M140.7 9.3h22c7.3 0 10.9 3.1 10.9 9.2v13.6c0 6.1-3.6 9.2-10.9 9.2h-9v15.5h-13zm19.9 21.1V20.2c0-1.1-.6-1.6-1.9-1.6h-5.1v13.5h5.1c1.2 0 1.9-.6 1.9-1.7M189.5 56.9H178V9.3h14.1l7.7 25.4 7.7-25.4h14.1v47.5h-11.5V26.7l-5.9 19.9h-8.9l-5.8-19.8zM229.2 54.4h16.4v2.4h-16.4zM234 9.4h2.3v13.5c0 1.5-.8 2.2-2.4 2.2h-4.2v-1.8h3.5c.3 0 .5-.1.6-.2s.2-.3.2-.6v-2.1c-.2.7-.7 1-1.6 1h-.9c-1.5 0-2.3-.7-2.3-2.2v-7.7c0-1.5.8-2.2 2.3-2.2h.9c.8 0 1.3.3 1.6 1zm-1.7 10.3h.9c.3 0 .5-.1.6-.2s.2-.4.2-.7v-6.7c0-.3-.1-.5-.2-.7-.1-.1-.3-.2-.6-.2h-.9c-.3 0-.5 0-.6.1s-.2.3-.2.6v7c0 .3.1.5.2.6s.3.2.6.2M243.1 9.4h2.3v12.3h-2.3v-1c-.2.7-.7 1-1.6 1h-.9c-1.5 0-2.3-.7-2.3-2.2v-7.8c0-1.5.8-2.2 2.3-2.2h.9c.8 0 1.3.3 1.6 1zm-1.7 10.4h.9c.3 0 .5-.1.6-.2s.2-.4.2-.7v-6.8c0-.3-.1-.5-.2-.7-.1-.1-.3-.2-.6-.2h-.9c-.3 0-.5 0-.6.1s-.2.3-.2.6V19c0 .3.1.5.2.6.1.2.3.2.6.2M256.1 9.4h.9c1.5 0 2.3.7 2.3 2.2v10H257V12c0-.3 0-.5-.1-.6s-.3-.1-.6-.1h-.9c-.5 0-.8.3-.8.9v9.6h-2.3V12c0-.3-.1-.5-.2-.6s-.3-.1-.6-.1h-.9c-.3 0-.5.1-.6.2s-.2.4-.2.7v9.6h-2.3V9.4h2.3v1c.2-.7.7-1 1.6-1h.9c1.1 0 1.8.4 2.1 1.1.2-.7.8-1.1 1.7-1.1M261.3 7V4.8h2.4V7zm2.3 14.7h-2.3V9.4h2.3zM269.7 9.4h.9c1.5 0 2.3.7 2.3 2.2v10h-2.3V12c0-.3-.1-.5-.2-.6s-.3-.1-.6-.1h-.8c-.3 0-.5.1-.6.2s-.2.4-.2.7v9.6h-2.3V9.4h2.3v1c.1-.7.7-1 1.5-1M279.6 9.4h2.3v13.5c0 1.5-.8 2.2-2.4 2.2h-4.2v-1.8h3.5c.3 0 .5-.1.6-.2s.2-.3.2-.6v-2.1c-.2.7-.7 1-1.6 1h-.9c-1.5 0-2.3-.7-2.3-2.2v-7.7c0-1.5.8-2.2 2.3-2.2h.9c.8 0 1.3.3 1.6 1zm-1.7 10.3h.9c.3 0 .5-.1.6-.2s.2-.4.2-.7v-6.7c0-.3-.1-.5-.2-.7-.1-.1-.3-.2-.6-.2h-.9c-.3 0-.5 0-.6.1s-.2.3-.2.6v7c0 .3.1.5.2.6s.3.2.6.2"/></svg>